<?xml version="1.0" standalone="no"?>
<!DOCTYPE svg PUBLIC "-//W3C//DTD SVG 1.1//EN" "http://www.w3.org/Graphics/SVG/1.1/DTD/svg11.dtd" >
<!--
2013-9-30: Created.
-->
<svg>
<metadata>
Created by iconfont
</metadata>
<defs>

<font id="iconfont" horiz-adv-x="1024" >
  <font-face
    font-family="iconfont"
    font-weight="500"
    font-stretch="normal"
    units-per-em="1024"
    ascent="896"
    descent="-128"
  />
    <missing-glyph />
    
    <glyph glyph-name="shoucang" unicode="&#58898;" d="M1024.049737 502.491429a36.571429 36.571429 0 0 1-29.257143 24.868571l-311.588571 44.617143L544.232594 853.577143a37.302857 37.302857 0 0 1-64.365714 0l-138.971429-281.6L30.769737 530.285714a36.571429 36.571429 0 0 1-29.257143-24.868571 36.571429 36.571429 0 0 1 9.508572-36.571429l224.548571-219.428571-53.394286-311.588572a36.571429 36.571429 0 0 1 14.628572-35.108571 35.108571 35.108571 0 0 1 21.211428-6.582857 33.645714 33.645714 0 0 1 16.091429 4.388571l277.942857 146.285715 277.942857-146.285715a34.377143 34.377143 0 0 1 37.302857 0 36.571429 36.571429 0 0 1 14.628572 35.108572l-53.394286 309.394285 224.548572 219.428572a36.571429 36.571429 0 0 1 10.971428 38.034286z"  horiz-adv-x="1025" />

    
    <glyph glyph-name="liebiao" unicode="&#58880;" d="M187.392 825.344q28.672 0 48.64-19.456t19.968-48.128l0-52.224q0-28.672-19.968-48.64t-48.64-19.968l-54.272 0q-27.648 0-47.616 19.968t-19.968 48.64l0 52.224q0 28.672 19.968 48.128t47.616 19.456l54.272 0zM889.856 825.344q27.648 0 47.616-19.456t19.968-48.128l0-52.224q0-28.672-19.968-48.64t-47.616-19.968l-437.248 0q-28.672 0-48.64 19.968t-19.968 48.64l0 52.224q0 28.672 19.968 48.128t48.64 19.456l437.248 0zM187.392 506.88q28.672 0 48.64-19.968t19.968-48.64l0-52.224q0-27.648-19.968-47.616t-48.64-19.968l-54.272 0q-27.648 0-47.616 19.968t-19.968 47.616l0 52.224q0 28.672 19.968 48.64t47.616 19.968l54.272 0zM889.856 506.88q27.648 0 47.616-19.968t19.968-48.64l0-52.224q0-27.648-19.968-47.616t-47.616-19.968l-437.248 0q-28.672 0-48.64 19.968t-19.968 47.616l0 52.224q0 28.672 19.968 48.64t48.64 19.968l437.248 0zM187.392 187.392q28.672 0 48.64-19.968t19.968-47.616l0-52.224q0-28.672-19.968-48.64t-48.64-19.968l-54.272 0q-27.648 0-47.616 19.968t-19.968 48.64l0 52.224q0 27.648 19.968 47.616t47.616 19.968l54.272 0zM889.856 187.392q27.648 0 47.616-19.968t19.968-47.616l0-52.224q0-28.672-19.968-48.64t-47.616-19.968l-437.248 0q-28.672 0-48.64 19.968t-19.968 48.64l0 52.224q0 27.648 19.968 47.616t48.64 19.968l437.248 0z"  horiz-adv-x="1024" />

    
    <glyph glyph-name="gongzuoliuchengtu" unicode="&#58881;" d="M983.964-57.145 846.307-57.145c-21.721 0-39.33 17.575-39.33 39.249L806.977 99.859c0 21.677 17.609 39.249 39.33 39.249l39.33 0L885.637 315.737c0 21.679-17.607 39.251-39.33 39.251L531.664 354.988l0-215.88 39.332 0c21.721 0 39.33-17.572 39.33-39.249l0-117.756c0-21.674-17.609-39.249-39.33-39.249L433.34-57.146c-21.723 0-39.33 17.575-39.33 39.249L394.01 99.859c0 21.677 17.607 39.249 39.33 39.249l39.33 0 0 215.88L177.693 354.988c-21.721 0-39.33-17.572-39.33-39.251l0-176.629 39.33 0c21.721 0 39.33-17.572 39.33-39.249l0-117.756c0-21.674-17.609-39.249-39.33-39.249L40.036-57.146c-21.721 0-39.33 17.575-39.33 39.249L0.706 99.859c0 21.677 17.609 39.249 39.33 39.249l39.33 0L79.366 335.364c0 43.355 35.219 78.502 78.663 78.502L472.67 413.866 472.67 629.743l-39.33 0c-21.723 0-39.33 17.575-39.33 39.253L394.01 786.748c0 21.679 17.607 39.251 39.33 39.251l137.657 0c21.721 0 39.33-17.572 39.33-39.251l0-117.751c0-21.679-17.609-39.253-39.33-39.253l-39.332 0 0-215.878 334.309 0c43.441 0 78.66-35.147 78.66-78.502l0-196.255 39.33 0c21.721 0 39.33-17.572 39.33-39.249l0-117.756C1023.294-39.571 1005.684-57.145 983.964-57.145z"  horiz-adv-x="1024" />

    
    <glyph glyph-name="android" unicode="&#58944;" d="M896 512c-35.2 0-64-28.8-64-64l0-256c0-35.2 28.8-64 64-64s64 28.8 64 64l0 256c0 35.2-28.8 64-64 64zM128 512c-35.2 0-64-28.8-64-64l0-256c0-35.2 28.8-64 64-64s64 28.8 64 64l0 256c0 35.2-28.8 64-64 64zM224 160c0-53.024 42.976-96 96-96l0 0 0-128c0-35.2 28.8-64 64-64s64 28.8 64 64l0 128 128 0 0-128c0-35.2 28.8-64 64-64s64 28.8 64 64l0 128c53.024 0 96 42.976 96 96l0 352-576 0 0-352zM798.208 576c-9.728 87.872-59.008 163.808-129.632 209.632l32.032 64.032c7.904 15.808 1.504 35.04-14.304 42.944s-35.04 1.504-42.944-14.304l-32.128-64.288-8.352 3.328c-28.576 9.504-59.136 14.656-90.88 14.656s-62.304-5.152-90.88-14.656l-8.352-3.328-32.128 64.288c-7.904 15.808-27.136 22.208-42.944 14.304s-22.208-27.136-14.304-42.944l32.032-64.032c-70.624-45.856-119.904-121.76-129.632-209.632l0-32 574.208 0 0 32-1.792 0zM416 640c-17.664 0-32 14.336-32 32s14.304 31.968 31.936 32c0.032 0 0.064 0 0.096 0s0.032 0 0.064 0c17.632-0.032 31.936-14.336 31.936-32s-14.336-32-32-32zM608 640c-17.664 0-32 14.336-32 32s14.272 31.968 31.936 32c0 0 0.032 0 0.064 0s0.064 0 0.096 0c17.632-0.032 31.936-14.336 31.936-32s-14.336-32-32-32z"  horiz-adv-x="1024" />

    
    <glyph glyph-name="dianzan" unicode="&#58892;" d="M884.876 472.857h-237.905c92.186 340.464-63.517 357.853-63.517 357.853-65.993 0-52.312-52.182-57.303-60.882 0-166.502-176.85-296.972-176.85-296.972v-472.172c0-46.608 63.517-63.394 88.433-63.394h357.452c33.641 0 61.036 88.224 61.036 88.224 88.434 300.706 88.434 390.177 88.434 390.177 0.001 62.128-59.781 57.164-59.781 57.164v0 0zM251.671 472.7h-142.457c-29.42 0-29.873-28.896-29.873-28.896l29.42-476.203c0-30.309 30.361-30.309 30.361-30.309h123.297c25.686 0 25.459 20.050 25.459 20.050l-0 479.247c0 36.574-36.208 36.111-36.208 36.111v0 0zM251.671 472.7z"  horiz-adv-x="1024" />

    
    <glyph glyph-name="duihuakuang2" unicode="&#58911;" d="M807.618323 703.192739 135.379828 703.192739c-34.028001 0-56.018851-21.021779-56.018851-53.55166L79.360977 208.982918c0-32.0653 21.458731-51.978838 56.018851-51.978838l98.035804 0c16.029068 0 28.009937-20.883633 28.009937-39.552831L261.425569-13.811308l178.331571 155.223271c2.448772 2.12029 4.840238 4.576225 7.249101 7.071046 3.281743 3.391237 8.233522 8.520047 10.489912 8.520047l350.123192 0c34.232662 0 56.019875 19.913539 56.019875 51.978838L863.639221 649.641079C863.638197 682.17096 841.332169 703.192739 807.618323 703.192739zM835.629283 208.982918c0-10.29753-3.363607-23.976064-28.010961-23.976064L457.49513 185.006853c-14.141068 0-23.674189-9.853415-30.622438-17.061584-1.832741-1.895163-3.638877-3.781116-5.498224-5.402033L289.434483 47.705767l0 69.743434c0 32.627095-22.511713 67.557652-56.018851 67.557652l-98.035804 0c-28.009937 0-28.009937 18.054191-28.009937 23.976064L107.369891 649.641079c0 21.103644 15.237029 25.541723 28.009937 25.541723l672.238494 0c18.24555 0 28.010961-8.595772 28.010961-25.541723L835.629283 208.982918 835.629283 208.982918zM919.659095 815.238628 247.420601 815.238628c-34.028001 0-56.019875-21.027919-56.019875-53.5578l0-30.478152c0-7.735172 6.263657-14.005992 14.005992-14.005992 7.740288 0 14.005992 6.27082 14.005992 14.005992L219.41271 761.680828c0 21.109784 15.237029 25.541723 28.009937 25.541723l672.238494 0c18.24555 0 28.010961-8.595772 28.010961-25.541723l0-440.658162c0-18.340717-11.570523-37.972846-28.010961-37.972846l-25.670659 0c-7.739265 0-14.004969-6.277984-14.004969-14.011108 0-7.735172 6.262634-14.005992 14.004969-14.005992l25.670659 0c34.288944 0 56.019875 34.254152 56.019875 65.989947L975.681016 761.680828C975.67897 794.210709 953.371918 815.238628 919.659095 815.238628z"  horiz-adv-x="1024" />

    
    <glyph glyph-name="duihuakuang4" unicode="&#58913;" d="M908.732232 801.077094l-762.424516 0c-36.913724 0-66.947761-30.034037-66.947761-66.947761l0-482.31798c0-36.919864 30.034037-66.947761 66.947761-66.947761l132.198881 0c21.472034 0 38.937824-17.464767 38.937824-38.938847l0-145.57554 204.329688 175.143972c7.046486 6.036483 16.029068 9.367345 25.331945 9.367345l361.627201 0c36.912701 0 66.946738 30.02892 66.946738 66.948785L975.679993 734.129332C975.67897 771.042034 945.644933 801.077094 908.732232 801.077094zM947.670056 251.811352c0-21.472034-17.46579-38.946011-38.937824-38.946011L547.105031 212.865341c-15.97381 0-31.455409-5.717212-43.560098-16.118096l-158.090575-135.487787L345.454358 145.92679c0 36.905538-30.034037 66.940598-66.947761 66.940598L146.307715 212.867388c-21.472034 0-38.938847 17.47193-38.938847 38.946011L107.368868 734.129332c0 21.479197 17.464767 38.944987 38.938847 38.944987l762.424516 0c21.469987 0 38.937824-17.464767 38.937824-38.944987L947.670056 251.811352 947.670056 251.811352zM303.440475 591.008704c-46.337351 0-84.029812-37.699624-84.029812-84.029812 0-46.336328 37.692461-84.029812 84.029812-84.029812 46.335305 0 84.028788 37.693484 84.028788 84.029812C387.469264 553.30908 349.77578 591.008704 303.440475 591.008704zM303.440475 450.957994c-30.895661 0-56.019875 25.124214-56.019875 56.019875 0 30.889521 25.124214 56.019875 56.019875 56.019875 30.893614 0 56.019875-25.131377 56.019875-56.019875C359.46035 476.083232 334.334089 450.957994 303.440475 450.957994zM508.125251 591.008704c-46.336328 0-84.028788-37.699624-84.028788-84.029812 0-46.336328 37.692461-84.029812 84.028788-84.029812s84.030835 37.693484 84.030835 84.029812C592.157109 553.30908 554.462602 591.008704 508.125251 591.008704zM508.125251 450.957994c-30.894637 0-56.019875 25.124214-56.019875 56.019875 0 30.889521 25.125237 56.019875 56.019875 56.019875s56.019875-25.131377 56.019875-56.019875C564.146149 476.083232 539.020912 450.957994 508.125251 450.957994zM723.589534 591.008704c-46.336328 0-84.030835-37.699624-84.030835-84.029812 0-46.336328 37.694507-84.029812 84.030835-84.029812 46.335305 0 84.027765 37.693484 84.027765 84.029812C807.618323 553.30908 769.925862 591.008704 723.589534 591.008704zM723.589534 450.957994c-30.894637 0-56.019875 25.124214-56.019875 56.019875 0 30.889521 25.125237 56.019875 56.019875 56.019875 30.893614 0 56.019875-25.131377 56.019875-56.019875C779.609409 476.083232 754.485195 450.957994 723.589534 450.957994z"  horiz-adv-x="1024" />

    
    <glyph glyph-name="sanjiaotop" unicode="&#59060;" d="M511.997952 627.974268 146.975708 140.025732l730.048584 0L511.997952 627.974268"  horiz-adv-x="1024" />

    
    <glyph glyph-name="shangyinhao" unicode="&#58941;" d="M505.6 691.2c0-12.8-12.8-25.6-44.8-44.8C307.2 531.2 236.8 441.6 236.8 371.2c0-38.4 25.6-70.4 70.4-83.2 70.4-25.6 96-70.4 96-115.2 0-38.4-19.2-134.4-134.4-134.4-89.6 0-204.8 64-204.8 217.6C64 409.6 211.2 576 416 723.2 428.8 736 441.6 736 448 736c12.8 0 25.6-6.4 38.4-19.2C499.2 704 505.6 697.6 505.6 691.2zM960 691.2c0-12.8-12.8-25.6-44.8-44.8-153.6-108.8-224-204.8-224-275.2 0-38.4 25.6-70.4 70.4-83.2 70.4-25.6 96-70.4 96-115.2 0-38.4-19.2-134.4-134.4-134.4-89.6 0-204.8 64-204.8 217.6 0 160 147.2 326.4 352 473.6 12.8 12.8 25.6 12.8 38.4 12.8C928 736 960 704 960 691.2z"  horiz-adv-x="1024" />

    
    <glyph glyph-name="biaoqian" unicode="&#59039;" d="M160.755264 831.291233c-52.871161 0-96.052636-43.177382-96.052636-96.010681L64.702628 511.029138c0-52.749388 30.578436-126.584 68.009953-163.941839l382.333802-382.327662c37.314861-37.399795 98.380658-37.399795 135.775336 0l280.4606 280.413528c37.352723 37.394678 37.352723 98.506525 0 135.859247L548.912701 763.364167c-37.357839 37.394678-111.109564 67.927065-163.941839 67.927065L160.755264 831.291233 160.755264 831.291233zM288.335964 511.815037c-52.913117 0-95.842859 42.930765-95.842859 95.842859 0 52.91721 42.929742 95.842859 95.842859 95.842859 52.916187 0 95.842859-42.929742 95.842859-95.842859C384.178823 554.746826 341.252151 511.815037 288.335964 511.815037L288.335964 511.815037zM288.335964 511.815037"  horiz-adv-x="1024" />

    
    <glyph glyph-name="combinedshapecopy2" unicode="&#58962;" d="M0-60.865864 1146.877993-60.865864 1146.877993-124.7232 0-124.7232 0-60.865864ZM0-16.775537 300.529213 68.547994 85.868257 281.896387 0-16.775537ZM802.673951 567.629578 588.010209 780.980716 115.744481 311.621509 330.405437 98.291139 802.673951 567.629578ZM902.442885 746.845225 768.272343 880.181371C746.042941 902.277693 708.804076 901.074616 685.091594 877.515981L620.682076 813.523681 835.34721 600.173896 899.75255 664.185651C923.465032 687.745638 924.668109 724.746117 902.442885 746.845225Z"  horiz-adv-x="1147" />

    
    <glyph glyph-name="qq" unicode="&#58982;" d="M136.250225 316.51444c-31.619466-78.792845-36.838213-153.79954-11.358449-167.818527 17.60048-9.721195 45.024483 12.484061 70.811232 52.801439 10.232837-44.103528 35.507944-83.704607 71.629859-115.733387-37.759169-14.735285-62.522634-38.782452-62.522634-66.001799 0-44.819826 66.922754-81.044069 149.39942-81.044069 74.392725 0 136.096732 29.368242 147.455181 68.150695l17.702808 0c11.563106-38.680124 73.164785-68.150695 147.659838-68.150695 82.578995 0 149.39942 36.224243 149.39942 81.044069 0 27.219346-24.763466 51.061857-62.624963 66.001799 36.019586 32.02878 61.397022 71.629859 71.527531 115.733387 25.786749-40.317378 53.108424-62.420306 70.811232-52.801439 25.582093 13.916658 20.465674 89.025682-11.460777 167.818527-24.968122 61.704007-58.736484 107.137804-84.523234 117.370641 0.306985 3.78615 0.61397 7.879285 0.61397 11.870091 0 23.944839-6.344359 45.945438-17.191166 63.955231 0.204657 1.432597 0.204657 2.762866 0.204657 4.195463 0 11.051464-2.455881 21.284301-6.753672 30.084541C770.583791 704.543619 671.325272 832.147097 510.567403 832.147097c-160.757869 0-260.118717-127.603478-266.667733-288.15669-4.195463-9.004897-6.753672-19.237734-6.753672-30.289198 0-1.432597 0-2.762866 0.204657-4.195463-10.64215-17.805136-16.986509-39.908064-16.986509-63.852903 0-3.990806 0.204657-7.981613 0.511642-11.972419C195.089038 423.652243 161.218347 378.218447 136.250225 316.51444L136.250225 316.51444zM136.250225 316.51444"  horiz-adv-x="1024" />

    
    <glyph glyph-name="bangzhu" unicode="&#58927;" d="M879.434463 641.180384C777.471211 786.993331 603.812055 853.542003 438.940031 826.562535c-64.207347-10.516518-127.116119-35.211966-183.90245-74.910107C52.443419 609.960335 2.904143 329.853799 144.565537 127.255545c10.206456-14.605649 30.293957-18.212804 44.922119-7.954159 14.573927 10.201339 18.145266 30.314423 7.940856 44.904723C76.137051 337.666742 118.543883 577.484689 292.01782 698.793546 465.371006 820.06761 705.245236 777.702734 826.570465 604.230843c121.29146-173.461657 78.884628-413.278581-94.589308-534.588461-118.299313-82.689281-271.081998-92.278683-398.883733-25.154913-15.754822 8.336876-35.240619 2.214435-43.545772-13.535271-8.272407-15.759939-2.211365-35.255968 13.566994-43.540655 149.250232-78.470189 327.740416-67.245544 465.843774 29.372981C971.556581 158.475594 1021.095857 438.582129 879.434463 641.180384zM593.769328 354.939127c40.602743 33.689287 60.641125 60.366879 73.006757 80.036871 12.366655 19.573801 18.59552 40.408315 18.59552 62.316278-0.096191 39.533388-10.490935 74.29817-44.281529 104.08866-33.785477 29.79663-72.807213 44.792159-129.87086 44.792159-54.334489 0-91.702562-14.800078-125.097136-44.301995-17.356296-15.33322-30.55797-32.400944-39.591717-51.175543-12.945847-26.907836 1.76111-52.896744 29.978778-61.177338l5.827729-1.108241c15.301498-2.276856 26.731828 4.693906 38.516222 26.332738 6.251378 11.479449 21.132296 25.41074 31.357172 34.057677 17.040095 14.411221 38.075177 21.61939 63.391772 21.61939 26.192545 0 46.931892-6.913457 62.417585-20.739347 15.380292-13.83203 23.172769-30.380938 23.172769-49.760311 0-13.922081-4.479011-26.677593-13.146415-38.264489-5.64865-7.303336-22.978341-22.786982-51.995211-46.351678-29.016871-23.562649-48.39522-44.887326-58.032718-63.681368-9.736758-18.889209-12.715603-30.993898-12.848633-60.304458-0.12689-27.885094 21.194718-35.607986 41.454134-35.607986 27.847232 0 39.647999 16.539698 42.843784 38.153972 1.169639 7.90504 2.89084 14.205537 5.15644 18.909675C559.689139 323.388551 572.641125 337.408869 593.769328 354.939127zM513.559519 221.34241 513.559519 221.34241c-27.479865 0-49.755194-22.276353-49.755194-49.756217 0-29.80891 20.715811-49.760311 49.755194-49.760311 27.478841 0 49.755194 22.276353 49.755194 49.755194l0 0.005117C563.315736 199.066057 541.039383 221.34241 513.559519 221.34241z"  horiz-adv-x="1024" />

    
    <glyph glyph-name="sanjiao" unicode="&#58970;" d="M750.331 438.797l-238.576-238.087-238.087 238.576z"  horiz-adv-x="1024" />

    
    <glyph glyph-name="tubiao_diancai" unicode="&#58896;" d="M1022.4 315.2L928 720c-6.4 30.4-35.2 128-169.6 128H488c-14.4 0-24-11.2-24-24S473.6 800 488 800h270.4c91.2 0 115.2-54.4 121.6-88v-3.2l94.4-403.2c-1.6-40-33.6-70.4-73.6-70.4H712c-19.2 0-36.8-8-49.6-22.4-12.8-14.4-17.6-33.6-16-52.8l9.6-76.8c6.4-49.6-20.8-96-62.4-110.4-27.2-9.6-54.4-6.4-78.4 6.4-24 12.8-41.6 36.8-48 62.4-3.2 14.4-12.8 33.6-17.6 41.6l-16 30.4c-24 44.8-75.2 104-115.2 139.2-16 14.4-24 33.6-24 54.4V849.6H148.8c-67.2 0-121.6-54.4-121.6-121.6v-364.8c0-67.2 54.4-121.6 121.6-121.6h118.4c4.8-8 11.2-16 19.2-24 35.2-32 83.2-86.4 104-126.4l16-30.4c4.8-9.6 11.2-22.4 12.8-30.4 9.6-40 36.8-75.2 72-94.4 36.8-19.2 78.4-22.4 118.4-9.6 64 22.4 104 91.2 96 163.2l-9.6 76.8c-1.6 6.4 1.6 11.2 4.8 14.4 1.6 1.6 6.4 6.4 12.8 6.4h188.8c67.2 0 121.6 54.4 121.6 121.6l-1.6 6.4z m-777.6-24h-96c-40 0-73.6 32-73.6 73.6V728C75.2 768 108.8 800 148.8 800h97.6v-508.8z"  horiz-adv-x="1024" />

    
    <glyph glyph-name="yanjing" unicode="&#58893;" d="M515.2 672C208 672 22.4 358.4 22.4 358.4s214.4-304 492.8-304 492.8 304 492.8 304S822.4 672 515.2 672zM832 243.2c-102.4-86.4-211.2-140.8-320-140.8s-217.6 51.2-320 140.8c-35.2 32-70.4 64-99.2 99.2-6.4 6.4-9.6 12.8-16 19.2 3.2 6.4 9.6 12.8 12.8 19.2 25.6 35.2 57.6 70.4 92.8 102.4 99.2 89.6 208 144 329.6 144s230.4-54.4 329.6-144c35.2-32 64-67.2 92.8-102.4 3.2-6.4 9.6-12.8 12.8-19.2-3.2-6.4-9.6-12.8-16-19.2-28.8-32-60.8-67.2-99.2-99.2zM512 550.4c-96 0-169.6-76.8-169.6-169.6 0-96 76.8-169.6 169.6-169.6 96 0 169.6 76.8 169.6 169.6S604.8 550.4 512 550.4z m0-294.4c-67.2 0-121.6 54.4-121.6 121.6 0 67.2 54.4 121.6 121.6 121.6 67.2 0 121.6-54.4 121.6-121.6 0-64-54.4-121.6-121.6-121.6z"  horiz-adv-x="1024" />

    
    <glyph glyph-name="diqiu" unicode="&#58923;" d="M64 384a448 441.806 0 1 1 896 0 448 441.806 0 1 1-896 0ZM781.762 736.703c-9.478 7.062-19.292 13.692-29.336 20.008 4.529-28.581 17.641-63.033 17.641-63.033s-10.323-43.354-6.194-64c4.129-20.647 55.742 22.709 6.194-14.453-49.549-37.162-78.452-2.065-41.292-39.225 37.161-37.162 41.292 39.225 33.033-59.869-8.258-99.098-20.645-115.615-45.42-140.39-24.773-24.773-41.289-82.581-20.645-123.869 20.645-41.292 66.065-82.581 66.065-82.581s-22.557-146.768 4.186-149.183a448.776 448.776 0 0 1 17.486 12.517c33.532 43.599 80.517 185.695 102.201 196.536 6.569 3.285 22.253-1.83 41.592-10.938C948.31 269.428 960 325.353 960 384.001c0 26.273-2.458 51.965-6.917 76.978l-2.373-2.657c-43.711 27.736-100.367 122.283-168.948 278.381zM121.745 600.892c22.103-3.109 43.417-3.732 43.417-3.732-15.484-3.096 15.484-105.291 15.484-105.291-28.157-33.607-34.424-66.64-18.581-99.095-29.934-27.356 37.162-48.002 37.162-48.002 3.097-4.646-18.58-82.063-18.58-82.063-15.486-44.901 109.934-191.999 109.934-191.999-3.097 117.678 58.839 258.579 58.839 258.579 15.484 4.646 21.677 85.162 21.677 85.162 0 21.679-68.129 10.839-68.129 10.839 7.743 9.29 0 12.389 0 12.389-32.516 30.967-85.16 40.257-85.16 40.257-26.323 54.193-13.936 92.902-13.936 92.902 4.644 32.519 40.258-34.063 40.258-34.063 0-44.904 89.805-46.453 89.805-46.453-43.354 60.387 12.387 117.679 12.387 117.679 1.548 12.386 37.162 3.094 37.162 3.094-1.547 35.614-46.452 27.873-46.452 27.873C330.839 651.354 272 611.095 272 611.095c-15.483 15.486 60.388 51.099 60.388 51.099 52.644 83.612-103.743 48-103.743 48-8.131-1.274-15.701-2.618-23.009-3.993-33.081-30.602-61.429-66.085-83.891-105.309zM512 825.806c-10.97 0-21.81-0.524-32.582-1.29C711.614 808.04 894.837 617.185 894.837 384.001c0-233.187-183.223-424.041-415.418-440.518 10.772-0.763 21.612-1.289 32.582-1.289 247.424 0 448 197.802 448 441.807C960 628.002 759.425 825.806 512 825.806z"  horiz-adv-x="1024" />

    
    <glyph glyph-name="right" unicode="&#58974;" d="M342.3 794.1l410.1-410.1-410.1-410.1-70.7 70.7 339.4 339.4-339.4 339.4 70.7 70.7z"  horiz-adv-x="1024" />

    
    <glyph glyph-name="web-icon-" unicode="&#59109;" d="M768.928 561.984l-94.208 94.208L300.544 281.984l-4.416-98.592 98.592 4.416 374.208 374.176zM862.048 118.528H246.048a44.16 44.16 0 0 1-44-44 44.16 44.16 0 0 1 44-44h616a44.16 44.16 0 0 1 44 44c0 24.192-19.776 44-44 44zM787.712 580.8l-94.208 94.208 26.4 26.4a39.488 39.488 0 0 0 55.648 0l38.56-38.56a39.488 39.488 0 0 0 0-55.648l-26.4-26.4z"  horiz-adv-x="1024" />

    
    <glyph glyph-name="duihua" unicode="&#58914;" d="M522.8 160.6h20.5M715.9 179.6h-29.6M830.8 179.8s-22-43.2 12.3-61.2c0 0-58.6-7.3-80 36l40 40.7 27.7-15.5zM763 154.6l30.3 30.8 37.5-5.6c-21.2-25.2-28.9-46.5-31.5-56.2-14 5-28 14.2-36.3 31zM533.1 286.6c0-92.8 75.2-168 168-168 58 0 109.1 29.4 139.3 74.1 18.1 26.8 28.7 59.1 28.7 93.9 0 92.8-75.2 168-168 168s-168-75.2-168-168zM777.8 286.6m-24.7 0a24.7 24.7 0 1 1 49.4 0 24.7 24.7 0 1 1-49.4 0ZM701.1 286.6m-24.7 0a24.7 24.7 0 1 1 49.4 0 24.7 24.7 0 1 1-49.4 0ZM624.4 286.6m-24.7 0a24.7 24.7 0 1 1 49.4 0 24.7 24.7 0 1 1-49.4 0ZM702 185.2h-32.3M397 215.3h46.7M215.4 215.6s34.8-68.3-19.4-96.7c0 0 92.6-11.5 126.5 56.8L259.3 240l-43.9-24.4zM322.5 175.7l-47.9 48.7-59.2-8.9c33.4-39.8 45.6-73.5 49.8-88.7 22.1 7.8 44.2 22.3 57.3 48.9zM685.9 384.4c0-146.6-118.9-265.5-265.5-265.5-91.6 0-172.4 46.4-220.1 117.1-28.6 42.4-45.3 93.5-45.3 148.4 0 146.6 118.9 265.5 265.5 265.5S685.9 531 685.9 384.4zM299.2 384.4m-39 0a39 39 0 1 1 78 0 39 39 0 1 1-78 0ZM420.4 384.4m-39 0a39 39 0 1 1 78 0 39 39 0 1 1-78 0ZM541.5 384.4m-39 0a39 39 0 1 1 78 0 39 39 0 1 1-78 0Z"  horiz-adv-x="1024" />

    
    <glyph glyph-name="fangdajing" unicode="&#58935;" d="M921.3 22L738.1 205.2c51.3 62.6 82.1 142.5 82.1 229.6 0 200.1-162.8 363-363 363-200.1 0-363-162.8-363-363s162.8-363 363-363c87 0 167 30.8 229.6 82.1L870-29.3c7.1-7.1 16.4-10.6 25.7-10.6s18.6 3.5 25.7 10.6c14.1 14.2 14.1 37.2-0.1 51.3zM166.8 434.8c0 160.1 130.3 290.4 290.4 290.4s290.4-130.3 290.4-290.4-130.3-290.4-290.4-290.4-290.4 130.3-290.4 290.4z"  horiz-adv-x="1024" />

    
    <glyph glyph-name="biji" unicode="&#58958;" d="M864-107.2H160c-43.2 0-70.4 25.6-70.4 70.4V806.4C91.2 848 116.8 875.2 160 875.2h211.2v-350.4l70.4-140.8 70.4 140.8V875.2h352c38.4 0 70.4-33.6 70.4-70.4v-843.2c-1.6-46.4-20.8-68.8-70.4-68.8z m-430.4 116.8c25.6-25.6 65.6 35.2 140.8 38.4 1.6 0 1.6 0 3.2 1.6-3.2 0-6.4 0-9.6 3.2l-99.2 97.6c-4.8 4.8-3.2 11.2 1.6 17.6-3.2-4.8-6.4-9.6-8-16-14.4-88-52.8-118.4-28.8-142.4z m54.4 177.6c-3.2-3.2-9.6-8-14.4-14.4 6.4 6.4 16 6.4 20.8 1.6l99.2-97.6c4.8-4.8 3.2-11.2 0-16 3.2 3.2 6.4 8 8 9.6L835.2 288c-6.4-3.2-12.8-3.2-16 0L720 387.2c-4.8 4.8-3.2 11.2 0 17.6L488 187.2z m348.8 214.4c-27.2 27.2-68.8 32-100.8 12.8 3.2 0 6.4 0 9.6-3.2l99.2-97.6c3.2-3.2 3.2-6.4 3.2-9.6 19.2 28.8 16 70.4-11.2 97.6z"  horiz-adv-x="1024" />

    
    <glyph glyph-name="dengchu" unicode="&#60229;" d="M733.866667 426.666667l-46.933334 46.933333 59.733334 59.733333L896 384l-149.333333-149.333333-59.733334 64 42.666667 42.666666H512v85.333334h221.866667zM725.333333 554.666667h-85.333333V640H341.333333v-512h298.666667v85.333333h85.333333v-170.666666H256V725.333333h469.333333v-170.666666z"  horiz-adv-x="1024" />

    
    <glyph glyph-name="wenzhang" unicode="&#58903;" d="M802.305-29.035H185.288c-29.546 0-53.584 24.038-53.584 53.585V733.211c0 29.546 24.038 53.584 53.584 53.584h617.017c29.547 0 53.585-24.038 53.585-53.584V24.55c0-29.547-24.038-53.585-53.585-53.585z m-617.017 805.83c-24.033 0-43.584-19.552-43.584-43.584V24.55c0-24.033 19.552-43.585 43.584-43.585h617.017c24.033 0 43.585 19.552 43.585 43.585V733.211c0 24.033-19.552 43.584-43.585 43.584H185.288zM701.906 593.447H285.679c-10.304 0-15.528 2.499-15.528 7.427s5.225 7.427 15.528 7.427h416.227c10.304 0 15.528-2.499 15.528-7.427s-5.225-7.427-15.528-7.427zM704.049 476.326H287.822c-10.305 0-15.529 2.499-15.529 7.427 0 4.929 5.225 7.428 15.529 7.428h416.227c10.304 0 15.528-2.499 15.528-7.428 0-4.928-5.224-7.427-15.528-7.427zM702.977 363.046H286.751c-10.304 0-15.529 2.499-15.529 7.428 0 4.928 5.225 7.427 15.529 7.427h416.226c10.305 0 15.529-2.499 15.529-7.427 0-4.929-5.225-7.428-15.529-7.428zM705.12 245.926H288.893c-10.304 0-15.529 2.499-15.529 7.427s5.225 7.427 15.529 7.427H705.12c10.304 0 15.528-2.499 15.528-7.427s-5.224-7.427-15.528-7.427zM700.935 134.219H284.709c-10.305 0-15.529 2.498-15.529 7.426s5.225 7.427 15.529 7.427h416.226c10.305 0 15.529-2.499 15.529-7.427s-5.224-7.426-15.529-7.426z"  horiz-adv-x="1024" />

    
    <glyph glyph-name="caidan" unicode="&#58963;" d="M362 834H182c-66 0-120-54-120-120v-180c0-66 54-120 120-120h180c66 0 120 54 120 120V714c0 66-54 120-120 120z m30-270c0-33-27-60-60-60H212c-33 0-60 27-60 60V684c0 33 27 60 60 60h120c33 0 60-27 60-60v-120zM362 354H182c-66 0-120-54-120-120v-180c0-66 54-120 120-120h180c66 0 120 54 120 120V234c0 66-54 120-120 120z m30-270c0-33-27-60-60-60H212c-33 0-60 27-60 60V204c0 33 27 60 60 60h120c33 0 60-27 60-60v-120zM842 834H662c-66 0-120-54-120-120v-180c0-66 54-120 120-120h180c66 0 120 54 120 120V714c0 66-54 120-120 120z m30-270c0-33-27-60-60-60H692c-33 0-60 27-60 60V684c0 33 27 60 60 60h120c33 0 60-27 60-60v-120zM842 354H662c-66 0-120-54-120-120v-180c0-66 54-120 120-120h180c66 0 120 54 120 120V234c0 66-54 120-120 120z m30-270c0-33-27-60-60-60H692c-33 0-60 27-60 60V204c0 33 27 60 60 60h120c33 0 60-27 60-60v-120z"  horiz-adv-x="1024" />

    
    <glyph glyph-name="i" unicode="&#58902;" d="M682.667 810.667L512-42.667h170.667V-128h-512v85.333h170.666L512 810.667H341.333V896h512v-85.333H682.667z"  horiz-adv-x="1024" />

    
    <glyph glyph-name="wodedangxuan" unicode="&#58887;" d="M961.72259555-133.29749332999995H59.94723555c-18.64135111 0-37.28270222 9.32067555-48.93354666 23.30168888-11.65084445 16.31118222-16.31118222 34.95253333-11.65084444 53.59388445 46.60337778 237.67722667 240.00739555 414.77006222 473.02428444 433.41141333 78.06065778 0 162.52928-9.90321778 246.99790222-44.27320888 24.46677333-9.90321778 32.62236445-16.31118222 46.60337778-23.3016889 135.14979555-76.89557333 228.35655111-209.7152 258.64874666-365.83651555 4.66033778-18.64135111 0-37.28270222-13.98101333-53.59388445-11.65084445-13.98101333-30.29219555-23.30168889-48.93354667-23.30168888zM61.11232-95.43224888999998c-7.57304889 0-14.56355555 2.91271111-18.64135111 8.15559111-0.58254222 0.58254222-0.58254222 1.16508445-1.16508444 1.74762667-5.82542222 5.82542222-6.40796445 15.72864-5.24288 21.55406222 43.10812445 221.36604445 224.27875555 387.39057778 440.98446222 403.11921778h17.47626666c104.27505778 0 204.47232-32.62236445 253.40586667-63.49710222C876.08888889 198.75157333000004 961.72259555 78.16533332999995 988.51953778-63.974968890000014c1.16508445-8.15559111-0.58254222-15.72864-6.40796445-23.30168889-4.07779555-5.24288-11.06830222-8.15559111-18.64135111-8.15559111H61.11232zM494.52373333 325.16323554999997c101.36234667 0 198.64689778-31.45728 245.83281778-61.16693333h0.58254222c124.66403555-73.98286222 207.38503111-191.07384889 233.01688889-329.71889777 0.58254222-2.91271111 0.58254222-6.99050667-4.07779555-12.23338667-0.58254222-1.16508445-3.49525333-2.33016889-6.99050667-2.33016889H61.11232c-3.49525333 0-6.40796445 1.16508445-6.99050667 2.33016889-0.58254222 1.16508445-1.74762667 2.33016889-2.91271111 2.91271111-1.16508445 1.16508445-2.33016889 4.66033778-1.16508444 8.73813333 41.94304 214.95808 217.28824889 375.73973333 427.58599111 391.46837333 5.24288-0.58254222 11.06830222 0 16.89372444 0m0 29.12711112c-5.82542222 0-12.23338667 0-18.05880888-0.58254222C252.76871111 337.39662222000004 66.3552 167.29429332999996 22.08199111-61.06225777999998c-2.33016889-11.65084445 0-25.63185778 9.32067556-34.95253333 6.99050667-9.32067555 18.64135111-13.98101333 30.29219555-13.98101334H963.47022222c11.65084445 0 23.30168889 4.66033778 30.29219556 13.98101334 6.99050667 9.32067555 11.65084445 20.97152 9.32067555 34.95253333-27.96202667 149.13080889-116.50844445 271.46467555-246.99790222 349.52533333-49.51608889 30.87473778-150.87843555 65.82727111-261.56145778 65.82727112zM512 356.03797333c-146.80064 0-267.96942222 121.16878222-267.96942222 267.96942222S365.19936 891.97681778 512 891.97681778s267.96942222-121.16878222 267.96942222-267.96942223S658.80064 356.03797333 512 356.03797333zM512 393.90321778c-126.99420445 0-230.10417778 103.10997333-230.10417778 230.10417777S385.00579555 854.11157333 512 854.11157333s230.10417778-103.10997333 230.10417778-230.10417778-103.10997333-230.10417778-230.10417778-230.10417777zM512 839.54801778c118.83861333 0 215.54062222-96.70200889 215.54062222-215.54062223S630.83861333 408.46677333 512 408.46677333s-215.54062222 96.70200889-215.54062222 215.54062222 96.70200889 215.54062222 215.54062222 215.54062223m0 29.12711111c-135.14979555 0-244.66773333-109.51793778-244.66773333-244.66773334s109.51793778-244.66773333 244.66773333-244.66773333 244.66773333 109.51793778 244.66773333 244.66773333S647.14979555 868.67512889 512 868.67512889z"  horiz-adv-x="1024" />

    
    <glyph glyph-name="guanyu" unicode="&#59176;" d="M512 864C246.4 864 32 649.6 32 384s214.4-480 480-480 480 214.4 480 480S777.6 864 512 864z m0-896C281.6-32 96 153.6 96 384S281.6 800 512 800s416-185.6 416-416-185.6-416-416-416zM512 480c-25.6 0-48-22.4-48-48v-256c0-25.6 22.4-48 48-48s48 22.4 48 48v256c0 25.6-22.4 48-48 48zM512 592m-48 0a48 48 0 1 1 96 0 48 48 0 1 1-96 0Z"  horiz-adv-x="1024" />

    
    <glyph glyph-name="tupian" unicode="&#58983;" d="M314.7 600c-58.2 0-107.5-49.3-107.5-107.5S256.5 385 314.7 385c62.7-4.5 107.5 44.8 107.5 107.5 0 58.3-44.8 107.5-107.5 107.5z m0-174.6c-35.8 0-67.2 31.3-67.2 67.2 0 35.8 31.3 67.2 67.2 67.2 35.8 0 67.2-31.3 67.2-67.2 0-35.8-31.3-67.2-67.2-67.2z m564.2 317.9H144.6c-44.8 0-80.6-35.8-80.6-80.6V103c0-44.8 35.8-80.6 80.6-80.6h734.3c44.8 0 80.6 35.8 80.6 80.6V662.7c0 44.8-44.8 80.6-85.1 80.6h4.5z m26.9-626.8c0-22.4-17.9-44.8-44.8-44.8H158c-22.4 0-44.8 17.9-44.8 44.8v35.8l192.5 107.5 125.4-71.6c9-4.5 31.3-9 49.3 9L758 438.9l147.8-80.6v-241.8z m0 300L767 492.6c-22.4 9-44.8-17.9-49.3-17.9L444.6 241.8l-111.9 62.7c-4.5 4.5-22.4 17.9-40.3 9L113.2 215V649.3c0 22.4 17.9 44.8 44.8 44.8h707.5c22.4 0 44.8-17.9 44.8-44.8v-232.8h-4.5z m0 0"  horiz-adv-x="1024" />

    
    <glyph glyph-name="github" unicode="&#58956;" d="M512 810.666667C276.266667 810.666667 85.333333 619.733333 85.333333 384a426.410667 426.410667 0 0 1 291.754667-404.821333c21.333333-3.712 29.312 9.088 29.312 20.309333 0 10.112-0.554667 43.690667-0.554667 79.445333-107.178667-19.754667-134.912 26.112-143.445333 50.133334-4.821333 12.288-25.6 50.133333-43.733333 60.288-14.933333 7.978667-36.266667 27.733333-0.554667 28.245333 33.621333 0.554667 57.6-30.933333 65.621333-43.733333 38.4-64.512 99.754667-46.378667 124.245334-35.2 3.754667 27.733333 14.933333 46.378667 27.221333 57.045333-94.933333 10.666667-194.133333 47.488-194.133333 210.688 0 46.421333 16.512 84.778667 43.733333 114.688-4.266667 10.666667-19.2 54.4 4.266667 113.066667 0 0 35.712 11.178667 117.333333-43.776a395.946667 395.946667 0 0 0 106.666667 14.421333c36.266667 0 72.533333-4.778667 106.666666-14.378667 81.578667 55.466667 117.333333 43.690667 117.333334 43.690667 23.466667-58.666667 8.533333-102.4 4.266666-113.066667 27.178667-29.866667 43.733333-67.712 43.733334-114.645333 0-163.754667-99.712-200.021333-194.645334-210.688 15.445333-13.312 28.8-38.912 28.8-78.933333 0-57.045333-0.554667-102.912-0.554666-117.333334 0-11.178667 8.021333-24.490667 29.354666-20.224A427.349333 427.349333 0 0 1 938.666667 384c0 235.733333-190.933333 426.666667-426.666667 426.666667z"  horiz-adv-x="1024" />

    
    <glyph glyph-name="lingdang" unicode="&#58932;" d="M240.8 81.7c-54.4 0-95.6 0-113.1 0.2-15.7 0.1-29.5 10.7-33.6 25.9-4.1 15.2 2.5 31.3 16.1 39.3 55.8 32.7 85.5 110.8 100.6 170.5 16.4 64.6 19.3 121.6 19.6 127.8 0 75 29.3 145.5 82.3 198.5 53.1 53.1 123.6 82.3 198.7 82.3 75 0 145.6-29.2 198.7-82.3 53-53 82.2-123.5 82.3-198.4 0.4-6.8 3.9-64.5 20.6-129 15.4-59.3 45.4-136.9 100.9-169.5 13.6-8 20.2-24.2 16-39.5-4.2-15.2-18-25.7-33.7-25.7h-0.2c-41 0.3-215.1 0.1-383.4 0-97.8 0-197.3-0.1-271.8-0.1z m-26.2 70c76.3 0 188.3 0.1 297.8 0.2 109.1 0.1 220.6 0.2 296.8 0.2-6.8 9.6-13.3 19.8-19.4 30.8-18.3 32.9-33.4 72.4-45 117.4-18.4 71.4-22 133.5-22.4 142-0.1 0.8-0.1 1.6-0.1 2.4v0.8c-0.1 116.2-94.7 210.8-211 210.8-116.2 0-210.8-94.5-211-210.7v-0.7c0-0.8 0-1.5-0.1-2.3-0.4-8.5-3.6-70.6-21.7-142.1-11.4-45-26.4-84.5-44.5-117.5-6-11.2-12.6-21.6-19.4-31.3zM512-45.8c-89.9 0-163 73.1-163 163 0 19.3 15.7 35 35 35s35-15.7 35-35c0-51.3 41.7-93 93-93s93 41.7 93 93c0 19.3 15.7 35 35 35s35-15.7 35-35c0-89.9-73.1-163-163-163zM575.8 680c-19.3 0-35 15.7-35 35 0 15.9-12.9 28.8-28.8 28.8s-28.8-12.9-28.8-28.8c0-19.3-15.7-35-35-35s-35 15.7-35 35c0 54.5 44.3 98.8 98.8 98.8s98.8-44.3 98.8-98.8c0-19.4-15.7-35-35-35z"  horiz-adv-x="1024" />

    
    <glyph glyph-name="tubiao-" unicode="&#58888;" d="M870.52 659.1800000000001a51 51 0 0 1-54.21 21.73C463.46 601 244.08 552.47 228.88 550.8299999999999a13 13 0 0 1 0.54-26.05c3.73 0 15.08 0 592.64 130.72a25.38 25.38 0 0 0 26.22-39.5L517.91 155.07000000000005C510 144 498 143 489.52 145.69000000000005s-17.62 10.52-17.62 24.16V323.52a92.44 92.44 0 0 0 34.38 72.12L653.49 515a13 13 0 0 1-16.4 20.24L489.87 415.88a118.38 118.38 0 0 1-44-92.36v-153.67a50.65 50.65 0 0 1 35.69-49 53 53 0 0 1 16.2-2.57 50.54 50.54 0 0 1 41.34 21.58l330.36 460.92a51.06 51.06 0 0 1 1.06 58.4zM229 550.8299999999999zM264.78 288.57000000000005a800.69 800.69 0 0 1-64.16-165.3l-3.47-13.11a13 13 0 1 1 25.18-6.67l3.48 13.11a772.77 772.77 0 0 0 157.87 302.18l-19.87 16.86a800.72 800.72 0 0 1-99.03-147.07z"  horiz-adv-x="1024" />

    
    <glyph glyph-name="B" unicode="&#58886;" d="M259.721 23.604000000000042v740h277.656c56.531 0 101.891-7.484 136.047-22.453s60.906-38 80.266-69.094c19.344-31.109 29.031-63.641 29.031-97.594 0-31.609-8.547-61.375-25.641-89.281s-42.906-50.438-77.438-67.578c44.672-13.141 79.016-35.531 103.047-67.188 24.016-31.656 36.031-69.047 36.031-112.141 0-34.688-7.328-66.922-21.969-96.719-14.656-29.813-32.75-52.797-54.281-68.953-21.547-16.172-48.563-28.375-81.047-36.625-32.5-8.25-72.297-12.375-119.422-12.375h-282.28z m98 429h160.203c43.453 0 74.625 2.859 93.5 8.594 24.922 7.406 43.703 19.719 56.344 36.906 12.625 17.188 18.953 38.766 18.953 64.734 0 24.594-5.906 46.25-17.688 64.969-11.797 18.703-28.641 31.516-50.547 38.422s-59.469 10.375-112.688 10.375H357.721v-224z m0-342h184.546c31.688 0 53.938 1.172 66.75 3.547 22.578 4.031 41.453 10.781 56.625 20.234 15.156 9.438 27.625 23.188 37.406 41.234 9.781 18.031 14.672 38.859 14.672 62.484 0 27.656-7.109 51.688-21.313 72.094-14.219 20.406-33.875 34.734-58.969 43s-61.234 12.406-108.391 12.406H357.721v-254.999z"  horiz-adv-x="1024" />

    
    <glyph glyph-name="H" unicode="&#58889;" d="M235.5 24.309v740h98v-304h385v304h98v-740h-98v349h-385v-349h-98z"  horiz-adv-x="1024" />

    
    <glyph glyph-name="biaoge" unicode="&#58984;" d="M819.525818 849.454545H204.474182A158.068364 158.068364 0 0 1 46.545455 691.572364v-615.051637A158.114909 158.114909 0 0 1 204.474182-81.454545h615.051636A158.068364 158.068364 0 0 1 977.454545 76.520727V691.572364A158.021818 158.021818 0 0 1 819.525818 849.454545zM405.317818 277.317818V490.682182h213.317818v-213.364364H405.317818z m213.317818-69.818182V-11.636364H405.317818v219.136h213.317818zM116.363636 490.682182h219.136v-213.364364H116.363636V490.682182z m288.954182 69.818182V779.636364h213.317818v-219.136H405.317818z m283.136-69.818182H907.636364v-213.364364h-219.182546V490.682182zM907.636364 691.572364v-131.025455h-219.182546V779.636364h131.072c48.593455 0 88.110545-39.470545 88.110546-88.064zM204.474182 779.636364h130.978909v-219.136H116.363636V691.572364c0 48.593455 39.563636 88.064 88.110546 88.064zM116.363636 76.520727v130.978909h219.136V-11.636364H204.474182A88.250182 88.250182 0 0 0 116.363636 76.520727zM819.525818-11.636364h-131.072v219.136H907.636364v-130.978909a88.250182 88.250182 0 0 0-88.110546-88.157091z"  horiz-adv-x="1024" />

    
    <glyph glyph-name="weibo" unicode="&#59044;" d="M512 384m-512 0a512 512 0 1 1 1024 0 512 512 0 1 1-1024 0ZM633.65 512.708c75.705 16.713 58.991-58.992 58.991-60.958 0-8.848 6.881-16.714 16.714-16.714 8.846 0 15.731 6.883 16.714 14.747v1.967c9.387 83.773-44.881 95.402-74.354 95.673-4.105-12.204-10.611-23.83-19.209-34.651 0.38-0.03 0.76-0.064 1.144-0.064zM287.617 471.659c-26.664-27.944-43.306-51.37-43.306-51.37-52.108-69.807-45.227-123.881-45.227-123.881 12.782-119.947 138.627-152.393 235.962-160.261 102.251-7.863 240.876 36.379 283.155 126.833 42.277 90.449-34.41 125.846-57.021 129.777-24.577 4.917-12.78 17.699-12.78 17.699s23.595 40.311-4.921 68.821c-7.973 7.974-18.495 12.096-30.007 13.712-40.301-35.157-104.994-57.955-177.941-57.955-56.87 0.002-108.721 13.86-147.914 36.625z m340.135-162.472c0-68.819-82.591-133.709-184.84-138.631-102.251-4.911-184.837 47.194-184.837 116.019s82.586 123.881 184.837 128.798c101.267 4.916 183.858-38.344 184.84-106.186zM358.359 213.816c59.974-33.427 121.914-13.762 153.377 27.534 31.46 41.296 12.777 140.593-90.454 127.815-102.251-11.803-90.451-109.138-90.451-109.138s-0.985-30.473 27.528-46.211z m84.553 93.407c7.866 4.917 15.731 3.929 18.681-1.964 3.935-5.904 0.985-14.75-4.916-19.666-5.899-4.916-14.747-3.934-17.696 1.965-3.935 5.898-2.95 14.749 3.931 19.665z m-48.176-13.767c21.63 1.97 36.379-10.815 36.379-27.528 0-16.714-15.731-31.463-34.412-33.428-18.681-1.964-34.412 9.833-34.412 25.564 0 16.714 12.782 33.427 32.445 35.392zM696.571 626.756c-19.998 5-40.622 6.231-56.733 6.003 8.393-13.008 13.887-26.989 15.975-41.609 26.218-1.484 76.25-13.116 104.666-61.729 20.647-46.209 8.851-77.672 7.868-82.588 0 0-4.916-11.797-4.916-23.597 0-13.762 10.815-31.46 24.582-31.46 10.814 0 20.647-7.866 23.595 11.797 39.325 134.697-49.165 207.452-115.037 223.183zM633.65 546.135c-8.845 0-16.713-6.881-16.713-16.713 0-8.466 7.202-16.009 15.568-16.65 8.598 10.821 15.104 22.447 19.209 34.651-10.651 0.097-18.064-1.288-18.064-1.288zM522.549 474.361c-32.442-9.83-24.577 4.917-19.663 30.481 0 30.478-9.83 80.619-97.335 51.125-45.694-16.098-88.091-53.033-117.934-84.309 39.192-22.765 91.043-36.624 147.913-36.624 72.947 0 137.641 22.797 177.941 57.955-39.586 5.558-90.922-18.628-90.922-18.628zM613.003 630.688l-2.503-0.469c-9.827-2.949-18.14-9.361-18.14-21.161 0-13.764 10.815-24.579 24.577-24.579 0 0 13.762 1.967 22.611 5.898 2.118 0.707 8.015 1.241 16.264 0.774-2.088 14.62-7.582 28.601-15.975 41.609-12.4-0.176-22.13-1.217-26.834-2.072z"  horiz-adv-x="1024" />

    
    <glyph glyph-name="caogaoxiang" unicode="&#58904;" d="M310.4 361.4h179.2v-89.6H310.4zM310.4 540.6h358.4V451H310.4zM680-41.8H153.6c-37.1 0-67.2 30.1-67.2 67.2V742.2c0 37.1 30.1 67.2 67.2 67.2h716.8c37.1 0 67.2-30.1 67.2-67.2v-462.9c0-14.5-4.8-28.8-13.5-40.4L733.7-14.9c-12.6-16.9-32.7-26.9-53.7-26.9z m-504 89.6h492.8L848 286.7V719.8H176v-672z"  horiz-adv-x="1024" />

    
    <glyph glyph-name="daima" unicode="&#58894;" d="M958.17 448.6L760.69 646.08l-65.82-65.83 197.47-197.47L694.87 185.3l65.82-65.82 197.48 197.47 65.83 65.83zM263.3 646.08L65.82 448.6 0 382.78l65.82-65.83L263.3 119.48l65.82 65.82-197.47 197.48 197.47 197.47zM343.247-53.483L590.96 843.81l89.72-24.768-247.713-897.295z"  horiz-adv-x="1024" />

    
    <glyph glyph-name="fangda" unicode="&#58960;" d="M193.349046 685.905793v-130.995519c0.084979-23.530755-6.042025-43.024996-29.555785-43.105726h-0.195452c-23.649726 0.025494-33.940714 19.53673-34.004448 43.207701v169.916017a41.580349 41.580349 0 0 0 41.784299 41.809792h170.328166c23.641228-0.029743 42.795552-10.707386 42.825294-34.36561 0.029743-23.535004-19.009859-29.445311-42.523618-29.475054H210.344896a16.995851 16.995851 0 0 1-16.99585-16.99585z m620.306058 16.99585H681.992498c-23.513759 0.025494-42.549112 5.935801-42.523618 29.470805 0.029743 23.662473 19.184066 34.335867 42.825294 34.369859H852.78805a41.580349 41.580349 0 0 0 41.618589-41.809792v-169.920266c-0.063734-23.666722-10.354722-43.182207-34.000199-43.21195h-0.199701c-23.513759 0.084979-29.636515 19.57922-29.555785 43.109975v130.995519a16.995851 16.995851 0 0 1-16.99585 16.99585zM210.344896 65.90566H342.007502c23.513759-0.025494 42.553361-5.94005 42.523618-29.470805-0.029743-23.662473-19.184066-34.335867-42.825294-34.369859H171.21195a41.580349 41.580349 0 0 0-41.618589 41.809792v169.916017c0.063734 23.670971 10.354722 43.186456 34.004448 43.21195h0.195452c23.513759-0.084979 29.636515-19.574971 29.555785-43.105726v-130.995519a16.995851 16.995851 0 0 1 16.99585-16.99585z m620.306058 16.859884v130.991269c-0.084979 23.535004 6.042025 43.024996 29.555785 43.109975h0.199701c23.645477-0.029743 33.936465-19.545228 34.000199-43.21195v-169.916016a41.580349 41.580349 0 0 0-41.784299-41.809793h-170.328166c-23.641228 0.029743-42.795552 10.707386-42.825294 34.36561-0.025494 23.535004 19.009859 29.445311 42.523618 29.475054H813.655104a16.995851 16.995851 0 0 1 16.99585 16.995851z"  horiz-adv-x="1024" />

    
    <glyph glyph-name="html" unicode="&#58966;" d="M512 146.773333l173.653333 48.213334 23.466667 260.266666H400.213333L392.533333 541.866667h324.266667l8.533333 84.906666H298.666667l23.893333-256.426666h293.973333l-9.813333-110.08-94.72-25.6-94.72 25.6-5.973333 70.826666h-85.333334l12.373334-136.106666L512 146.773333M173.653333 768h676.693334L789.333333 76.8 512 0l-277.333333 76.8L173.653333 768z"  horiz-adv-x="1024" />

    
    <glyph glyph-name="vue" unicode="&#59065;" d="M76.416 731.690667L512-20.096 947.584 728.064v3.626667H778.24L514.56 278.741333 251.989333 731.648zM252.032 731.690667l262.485333-452.992L778.24 731.690667h-158.848L515.584 553.386667 412.16 731.733333z"  horiz-adv-x="1024" />

    
    <glyph glyph-name="duanxin" unicode="&#58895;" d="M512 384m-46.545455 0a46.545455 46.545455 0 1 1 93.09091 0 46.545455 46.545455 0 1 1-93.09091 0ZM744.727273 384m-46.545455 0a46.545455 46.545455 0 1 1 93.090909 0 46.545455 46.545455 0 1 1-93.090909 0ZM279.272727 384m-46.545454 0a46.545455 46.545455 0 1 1 93.090909 0 46.545455 46.545455 0 1 1-93.090909 0ZM512-11.636364C269.963636-11.636364 72.145455 165.236364 72.145455 384S269.963636 779.636364 512 779.636364s439.854545-176.872727 439.854545-395.636364c0-90.763636-34.909091-181.527273-100.072727-251.345455C784.290909 41.890909 658.618182-11.636364 512-11.636364z m0 744.727273C295.563636 733.090909 118.690909 577.163636 118.690909 384S295.563636 34.909091 512 34.909091c130.327273 0 246.690909 48.872727 302.545455 125.672727l2.327272 2.327273c55.854545 62.836364 88.436364 139.636364 88.436364 221.090909 0 193.163636-176.872727 349.090909-393.309091 349.090909zM772.654545-60.509091c-48.872727 0-111.709091 11.636364-179.2 51.2l-20.945454 11.636364 23.272727 39.563636 20.945455-11.636364c107.054545-60.509091 190.836364-46.545455 230.4-34.90909C814.545455 51.2 814.545455 123.345455 814.545455 128v23.272727h46.545454v-23.272727s0-83.781818 39.563636-123.345455l-4.654545-37.236363c-2.327273 0-48.872727-27.927273-123.345455-27.927273z"  horiz-adv-x="1024" />

    
    <glyph glyph-name="icon-test" unicode="&#58905;" d="M1024.2 614.9c0 20.5-14.5 37.2-32.4 37.2H716.7c-17.9 0-32.4-16.6-32.4-37.2 0-6.9-4.9-12.5-10.9-12.5H34.2C15.3 602.5 0 584.9 0 563.2v-362.1c0-21.7 15.3-39.3 34.2-39.3h955.5c18.9 0 34.2 17.6 34.2 39.3V525.6c0 0.5 0.1 1 0.1 1.5 0.1 0.8 0.1 1.7 0.1 2.6v85.2zM314 223c0-17.7-14.3-32-32-32H70c-17.7 0-32 14.3-32 32V544c0 17.7 14.3 32 32 32s32-14.3 32-32v-289h180c17.7 0 32-14.3 32-32z m304.6 63.5L510.4 202c-11.2-12.1-30-13.8-43.2-3.5l-111.9 87.4c-2.8 2.2-5.1 4.7-6.9 7.5l-0.1 0.1-0.6 0.9c-3 4.9-4.8 10.7-4.8 16.9v232c0 17.7 14.3 32 32 32s32-14.3 32-32v-216.5l79.6-62.2 79.9 62.4V543.7c0 17.7 14.3 32 32 32s32-14.3 32-32v-227c1.9-11.1-2.3-22.8-11.8-30.2z m371.8-62.8c0-17.7-14.3-32-32-32H752.5c-2.2-0.5-4.5-0.7-6.8-0.7-17.7 0-32 14.3-32 32V405.6c0 17.7 14.3 32 32 32h180.4V557.5H745.7c-17.7 0-32 14.3-32 32s14.3 32 32 32h212c6.7 0 12.9-2 18-5.5 8.6-5.7 14.3-15.5 14.3-26.7v-183.7c0-17.7-14.3-32-32-32H777.6v-117.8h180.7c17.7-0.1 32.1-14.4 32.1-32.1z"  horiz-adv-x="1024" />

    
    <glyph glyph-name="icon-test1" unicode="&#58906;" d="M1024.2 614.9c0 20.5-14.5 37.2-32.4 37.2H716.7c-17.9 0-32.4-16.6-32.4-37.2 0-6.9-4.9-12.5-10.9-12.5H34.2C15.3 602.5 0 584.9 0 563.2v-362.1c0-21.7 15.3-39.3 34.2-39.3h955.5c18.9 0 34.2 17.6 34.2 39.3V525.6c0 0.5 0.1 1 0.1 1.5 0.1 0.8 0.1 1.7 0.1 2.6v85.2zM314 223c0-17.7-14.3-32-32-32H70c-17.7 0-32 14.3-32 32V544c0 17.7 14.3 32 32 32s32-14.3 32-32v-289h180c17.7 0 32-14.3 32-32z m304.6 63.5L510.4 202c-11.2-12.1-30-13.8-43.2-3.5l-111.9 87.4c-2.8 2.2-5.1 4.7-6.9 7.5l-0.1 0.1-0.6 0.9c-3 4.9-4.8 10.7-4.8 16.9v232c0 17.7 14.3 32 32 32s32-14.3 32-32v-216.5l79.6-62.2 79.9 62.4V543.7c0 17.7 14.3 32 32 32s32-14.3 32-32v-227c1.9-11.1-2.3-22.8-11.8-30.2z m371.8-62.8c0-17.7-14.3-32-32-32h-212c-17.7 0-32 14.3-32 32s14.3 32 32 32H926V373.5H746c-17.7 0-32 14.3-32 32s14.3 32 32 32h180V557.4H745.7c-17.7 0-32 14.3-32 32s14.3 32 32 32h212c6.7 0 12.9-2 18-5.5 8.6-5.7 14.3-15.5 14.3-26.7V228.3c0.2-1.3 0.4-2.9 0.4-4.6z"  horiz-adv-x="1024" />

    
    <glyph glyph-name="icon-test2" unicode="&#58907;" d="M1024.2 614.9c0 20.5-14.5 37.2-32.4 37.2H716.7c-17.9 0-32.4-16.6-32.4-37.2 0-6.9-4.9-12.5-10.9-12.5H34.2C15.3 602.5 0 584.9 0 563.2v-362.1c0-21.7 15.3-39.3 34.2-39.3h955.5c18.9 0 34.2 17.6 34.2 39.3V525.6c0 0.5 0.1 1 0.1 1.5 0.1 0.8 0.1 1.7 0.1 2.6v85.2zM314 223c0-17.7-14.3-32-32-32H70c-17.7 0-32 14.3-32 32V544c0 17.7 14.3 32 32 32s32-14.3 32-32v-289h180c17.7 0 32-14.3 32-32z m304.6 63.5L510.4 202c-11.2-12.1-30-13.8-43.2-3.5l-111.9 87.4c-2.8 2.2-5.1 4.7-6.9 7.5l-0.1 0.1-0.6 0.9c-3 4.9-4.8 10.7-4.8 16.9v232c0 17.7 14.3 32 32 32s32-14.3 32-32v-216.5l79.6-62.2 79.9 62.4V543.7c0 17.7 14.3 32 32 32s32-14.3 32-32v-227c1.9-11.1-2.3-22.8-11.8-30.2zM991 223c0-17.7-14.3-32-32-32s-32 14.3-32 32V373H746c-17.7 0-32 14.3-32 32V589c0 17.7 14.3 32 32 32s32-14.3 32-32v-152h149V589c0 17.7 14.3 32 32 32s32-14.3 32-32v-366z"  horiz-adv-x="1024" />

    
    <glyph glyph-name="weibo1" unicode="&#58912;" d="M918.485 686.922c-62.138 69.905-155.345 95.796-238.195 77.672-20.713-5.178-31.069-23.301-28.48-44.014 5.178-20.713 23.302-31.069 44.014-28.48 59.55 12.945 126.865-5.178 170.88-54.37 44.014-49.193 56.96-116.509 36.247-176.058-2.59-10.356-2.59-18.123 2.589-28.48 5.178-7.767 12.945-15.534 20.712-18.123 18.124-5.178 38.836 5.178 46.604 23.302 23.301 85.44 7.767 178.646-54.371 248.551zM807.155 459.083c15.534-5.178 33.658 2.59 38.836 20.713 12.945 41.425 5.178 85.44-25.89 119.097-31.07 33.658-75.084 46.604-116.51 38.837-18.123-2.59-28.48-20.713-23.301-36.248 2.59-18.123 20.713-28.48 36.247-23.301 20.713 5.178 41.425-2.59 56.96-18.124 15.534-15.534 18.123-38.836 12.945-59.549-5.178-18.123 5.178-36.247 20.713-41.425z m-62.138-59.549c-12.945 5.179-23.302 7.768-15.535 23.302 15.535 38.836 15.535 72.494 0 95.796-31.068 44.014-116.508 41.425-212.304 0 0 0-31.069-12.945-23.302 10.356 15.535 49.193 12.946 88.029-10.356 111.33-51.781 51.782-191.592-2.588-310.689-121.686-88.029-90.618-139.81-183.824-139.81-266.675 0-157.934 201.948-253.73 398.718-253.73 258.907 0 429.786 150.167 429.786 269.265 0 72.494-62.138 113.919-116.508 132.042zM431.739 55.187c-157.934-15.534-292.566 56.96-302.922 157.934-10.357 103.563 108.74 199.359 266.675 214.893 157.933 15.535 292.565-56.96 302.922-157.933 10.356-103.563-108.742-199.36-266.675-214.894zM447.273 350.342c-75.083 20.713-160.523-18.124-191.592-82.85-33.658-67.316 0-142.4 75.084-165.701 77.672-25.891 170.879 12.945 201.948 85.44 31.069 69.904-7.768 142.398-85.44 163.111z m-56.96-173.468c-15.534-23.302-46.603-36.247-72.494-23.302-23.301 10.356-31.069 38.836-15.534 62.138 15.534 23.302 46.603 33.658 69.905 23.302 25.89-7.768 33.658-36.247 18.123-62.138z"  horiz-adv-x="1024" />

    
    <glyph glyph-name="github1" unicode="&#59013;" d="M427.392 42.496a61.44 61.44 0 0 0-1.450667-15.530667 92.586667 92.586667 0 0 0-10.965333-27.605333c-15.061333-25.301333-40.661333-42.154667-73.642667-42.154667-77.653333 0-108.117333 38.101333-146.261333 133.504C169.216 155.306667 157.013333 170.538667 128 170.538667v85.333333c77.653333 0 108.117333-38.101333 146.261333-133.504 25.856-64.597333 38.058667-79.786667 67.072-79.786667 0 12.373333-0.170667 23.296-0.512 38.144-0.853333 34.816-0.938667 41.941333 0.554667 51.2 0.64 20.352 5.888 34.773333 16.384 49.066667-95.232 20.736-159.445333 63.573333-196.309333 132.992l-13.824 32.426667C134.186667 385.152 128 428.928 128 479.573333c0 58.24 17.749333 110.336 50.944 153.856-10.368 41.386667-8.96 91.989333 13.909333 149.077334l7.466667 18.688 19.2 6.101333c2.56 0.853333 5.632 1.578667 9.301333 2.133333 37.290667 5.888 90.325333-8.106667 159.701334-52.48a565.930667 565.930667 0 0 0 127.274666 14.208c38.741333 0 77.226667-3.882667 114.048-11.605333 67.456 42.24 119.04 55.509333 155.306667 49.92 3.626667-0.597333 6.741333-1.322667 9.258667-2.133333l19.285333-6.101334 7.466667-18.773333c20.010667-50.218667 23.424-96.469333 16.128-136.96C875.434667 599.68 896 543.402667 896 479.488c0-53.888-3.84-94.378667-14.933333-133.802667l-11.733334-32.170666c-30.677333-69.333333-98.304-112.64-202.538666-133.248 10.837333-15.018667 15.872-30.250667 15.872-52.394667v-42.666667l-0.042667-42.666666a13.013333 13.013333 0 0 1 0.341333-2.730667L682.666667-42.794667c-36.352 0-63.36 17.706667-76.672 45.653334a88.277333 88.277333 0 0 0-8.661334 40.277333v84.736c0 3.584-0.128 3.797333-8.832 12.501333-23.296 23.296-33.834667 40.874667-33.834666 72.832v38.613334l38.4 3.84c114.346667 11.52 176.512 43.221333 197.12 89.6l9.6 26.325333c7.68 27.562667 10.88 61.098667 10.88 107.946667 0 49.706667-17.365333 90.837333-50.218667 123.648L742.4 621.226667l7.381333 24.448c6.528 21.717333 8.106667 47.402667 1.152 76.714666a158.634667 158.634667 0 0 1-3.584-0.938666c-22.826667-6.4-51.370667-20.053333-85.76-43.008l-15.658666-10.453334-18.304 4.522667a467.754667 467.754667 0 0 1-111.829334 13.269333c-42.709333 0-84.906667-5.418667-123.946666-16.042666l-19.029334-5.205334-16.256 11.136c-35.541333 24.32-65.109333 38.826667-88.746666 45.568a158.293333 158.293333 0 0 1-4.864 1.28c-8.234667-33.92-4.992-61.781333 3.413333-82.688l9.984-25.088-18.346667-19.797333C228.693333 563.370667 213.333333 525.013333 213.333333 479.488c0-41.685333 4.864-76.202667 13.824-102.229333l11.178667-26.453334c27.904-52.352 87.168-83.84 192.853333-95.146666l38.144-4.096v-38.357334c0-32-10.538667-49.536-33.834666-72.832-8.704-8.704-8.832-8.96-8.832-12.501333l-0.725334-7.893333c-0.512-2.56-0.512-9.258667 0.170667-37.205334 0.298667-12.8 0.469333-22.997333 0.554667-33.621333a33.962667 33.962667 0 0 0 0.725333-6.656z"  horiz-adv-x="1024" />

    
    <glyph glyph-name="mulu" unicode="&#58882;" d="M622.592-88.064H220.672c-59.392 0-108.032 48.64-108.032 108.032V704.512c0 59.392 48.64 108.032 108.032 108.032h582.656c59.392 0 108.032-48.64 108.032-108.032v-502.272c-5.12-141.312-142.336-279.04-288.256-289.792l-0.512-0.512zM220.672 767.488c-34.816 0-62.976-28.16-62.976-62.976V20.48c0-34.816 28.16-62.976 62.976-62.976h399.872c122.368 9.216 241.664 128.512 245.76 245.76v501.76c0 34.816-28.16 62.976-62.976 62.976H220.672zM669.696 351.232H264.704c-12.288 0-22.528 10.24-22.528 22.528 0 12.288 10.24 22.528 22.528 22.528h404.992c12.288 0 22.528-10.24 22.528-22.528 0-12.8-10.24-22.528-22.528-22.528zM804.352 553.472H219.648c-12.288 0-22.528 10.24-22.528 22.528s10.24 22.528 22.528 22.528h585.216c12.288 0 22.528-10.24 22.528-22.528s-10.24-22.528-23.04-22.528zM804.352 351.232H219.648c-12.288 0-22.528 10.24-22.528 22.528 0 12.288 10.24 22.528 22.528 22.528h585.216c12.288 0 22.528-10.24 22.528-22.528-0.512-12.8-10.24-22.528-23.04-22.528zM804.352 125.952H219.648c-12.288 0-22.528 10.24-22.528 22.528 0 12.288 10.24 22.528 22.528 22.528h585.216c12.288 0 22.528-10.24 22.528-22.528-0.512-12.288-10.24-22.528-23.04-22.528z"  horiz-adv-x="1024" />

    
    <glyph glyph-name="duanxin1" unicode="&#58940;" d="M100.096-51.712c-8.96 0-17.024 2.56-24.96 8.064l-2.176 1.536c-34.432 27.52-11.136 71.936 18.56 128.128 7.296 13.952 18.432 35.072 23.808 48.256-62.336 72.96-95.104 159.104-95.104 250.368 0 232.96 218.24 422.4 486.4 422.4s486.4-189.44 486.4-422.4-218.24-422.4-486.4-422.4c-91.264 0-178.688 21.504-253.824 62.08-13.824-6.528-38.528-21.504-54.528-31.104-45.568-27.392-74.624-44.928-98.176-44.928z m156.416 155.648c7.808 0 14.976-1.92 22.144-6.016 66.304-38.656 145.152-58.88 227.968-58.88 225.792 0 409.6 155.008 409.6 345.6s-183.808 345.6-409.6 345.6-409.6-155.008-409.6-345.6c0-76.928 29.696-149.888 85.888-210.816 24.448-26.368 9.728-60.288-16.256-109.952 41.088 24.832 67.712 40.064 89.856 40.064z m-130.304 17.92c0-0.128 0.128-0.128 0.128-0.256 0 0.128 0 0.256-0.128 0.256zM321.024 378.24m-44.8 0a44.8 44.8 0 1 1 89.6 0 44.8 44.8 0 1 1-89.6 0ZM513.024 378.24m-44.8 0a44.8 44.8 0 1 1 89.6 0 44.8 44.8 0 1 1-89.6 0ZM705.024 378.24m-44.8 0a44.8 44.8 0 1 1 89.6 0 44.8 44.8 0 1 1-89.6 0Z"  horiz-adv-x="1024" />

    
    <glyph glyph-name="liebiao1" unicode="&#59098;" d="M354.28352 574.0544V751.3088h572.20096v-177.2544H354.28352z m0-279.552V471.8592h572.20096v-177.3568H354.28352z m0-279.4496V192.3072h572.20096v-177.2544H354.28352zM108.9536 700.1088v25.7024a169.55392 169.55392 0 0 1 24.9344 2.3552 35.10272 35.10272 0 0 1 18.432 10.1376 32.65536 32.65536 0 0 1 7.38304 13.7216 30.48448 30.48448 0 0 1 1.45408 7.68h31.47776v-191.7952h-38.61504V700.1088H108.9536z m-1.45408-377.4464a105.99424 105.99424 0 0 0 38.0928 40.5504 291.0208 291.0208 0 0 1 33.72032 26.7264 39.6288 39.6288 0 0 1 11.776 27.5456 30.72 30.72 0 0 1-6.74816 20.2752 23.84896 23.84896 0 0 1-19.3024 7.9872 23.47008 23.47008 0 0 1-23.41888-12.8 63.71328 63.71328 0 0 1-4.22912-23.552H100.7616a92.16 92.16 0 0 0 8.87808 39.5264q15.08352 28.672 53.61664 28.7744a67.95264 67.95264 0 0 0 48.45568-16.896 58.368 58.368 0 0 0 18.01216-44.6464 60.0576 60.0576 0 0 0-12.72832-37.7856 123.00288 123.00288 0 0 0-27.42272-24.4736l-15.11424-10.752c-9.45152-6.7584-15.9232-11.5712-19.4048-14.5408a43.68384 43.68384 0 0 1-8.79616-10.4448h83.72224v-33.28H98.7136a90.4192 90.4192 0 0 0 8.82688 37.7856z m26.84928-250.6752a43.08992 43.08992 0 0 1 3.69664-19.0464 25.23136 25.23136 0 0 1 24.9344-13.9264 27.45344 27.45344 0 0 1 19.33312 7.68 28.03712 28.03712 0 0 1 8.25344 21.8112 24.69888 24.69888 0 0 1-15.29856 25.2928 78.01856 78.01856 0 0 1-27.43296 3.584v27.0336a71.02464 71.02464 0 0 1 25.6 3.4816 22.2208 22.2208 0 0 1 12.51328 22.528 24.87296 24.87296 0 0 1-6.38976 17.8176 23.37792 23.37792 0 0 1-18.01216 6.9632 22.81472 22.81472 0 0 1-19.58912-8.4992 36.03456 36.03456 0 0 1-6.00064-22.6304H100.7616a94.95552 94.95552 0 0 0 4.89472 27.136 61.29664 61.29664 0 0 0 14.53056 20.7872 51.712 51.712 0 0 0 17.57184 10.3424 76.8 76.8 0 0 0 24.96512 3.4816 66.65216 66.65216 0 0 0 44.32896-14.1312 47.48288 47.48288 0 0 0 16.8448-38.1952 42.09664 42.09664 0 0 0-10.04544-28.5696 33.54624 33.54624 0 0 0-13.23008-9.9328 27.136 27.136 0 0 0 14.80704-8.9088 47.3088 47.3088 0 0 0 14.42816-36.4544 61.44 61.44 0 0 0-16.85504-42.8032 64.2048 64.2048 0 0 0-49.8688-18.432q-40.704 0-56.55552 26.5216a79.03232 79.03232 0 0 0-9.216 37.0688h37.02784z"  horiz-adv-x="1024" />

    
    <glyph glyph-name="yingguangbi" unicode="&#58964;" d="M702.868837 731.945674a29.767442 29.767442 0 0 0 41.31721-42.722232l-2.333768-2.262326-297.674419-257.976558a29.767442 29.767442 0 0 0-41.317209 42.722233l2.333768 2.262325 297.674418 257.976558zM669.124465 851.205953L186.891907 432.818605a29.767442 29.767442 0 0 1-1.80986-43.269954l346.850232-355.756651a29.767442 29.767442 0 0 1 44.293954 1.833674l407.861581 494.544373c37.078326 45.198884 34.173023 114.902326-6.548837 156.648186l-153.671442 157.624558c-41.055256 42.150698-110.258605 45.17507-154.74307 6.763162z m265.787535-205.966883l2.810047-3.095814c16.812651-20.432372 17.312744-53.509953 0.381023-74.132837l-386.738605-468.872931L249.713116 408.528372 708.084093 806.173767c20.59907 17.789023 54.03386 16.312558 73.132651-3.286325l153.695256-157.648372zM145.789023 310.772093l1.285954-10.716279 0.309581-3.024372c3.095814-32.982326 1.595535-69.727256-7.620465-103.54307-7.144186-26.314419-18.479628-48.389953-34.387349-65.250232a29.767442 29.767442 0 0 1 0-40.888559l143.955349-152.433116a29.767442 29.767442 0 0 1 43.293767 0c15.764837 16.669767 36.197209 28.481488 60.606512 35.887628 31.291535 9.525581 65.393116 11.097302 95.994047 7.882419l7.144186-0.857303 2.71479-0.404837c28.267163-5.12 46.675349 28.814884 26.909768 49.723535L197.155721 332.990512c-19.408372 20.575256-53.248 4.929488-51.342884-22.218419z m61.344744-75.037767l186.153675-197.084279-1.428837-0.142884c-18.646326-1.666977-37.483163-5.096186-55.962791-10.740093l-7.715721-2.500465a204.895256 204.895256 0 0 1-49.294884-24.314047l-6.001116-4.262698-106.496 112.75907 1.619349 2.309954c13.002419 19.527442 22.623256 41.769674 29.219721 66.131349 4.738977 17.384186 7.810977 35.101767 9.501767 52.676465l0.404837 5.167628zM147.098791 76.966698l39.197767-44.770233-66.726698-58.439442 59.963535-31.791628-27.909953-52.605023-136.263442 72.275349z"  horiz-adv-x="1024" />

    
    <glyph glyph-name="jinggao" unicode="&#59029;" d="M986.763636 44.218182l-442.181818 716.8c-13.963636 23.272727-51.2 23.272727-65.163636 0l-442.181818-716.8c-9.309091-9.309091-9.309091-27.927273 0-37.236364 4.654545-13.963636 18.618182-18.618182 32.581818-18.618182h884.363636c13.963636 0 27.927273 9.309091 32.581818 18.618182 4.654545 13.963636 4.654545 27.927273 0 37.236364z m-851.781818 18.618182l377.018182 609.745454 377.018182-609.745454h-754.036364zM474.763636 449.163636l27.927273-232.727272c-18.618182-4.654545-37.236364-23.272727-37.236364-46.545455 0-27.927273 18.618182-46.545455 46.545455-46.545454s46.545455 18.618182 46.545455 46.545454c0 18.618182-13.963636 37.236364-32.581819 41.890909l23.272728 237.381818c0 18.618182-13.963636 37.236364-37.236364 37.236364-18.618182 0-37.236364-13.963636-37.236364-37.236364z"  horiz-adv-x="1024" />

    
    <glyph glyph-name="4-148" unicode="&#59025;" d="M473.818453 167.253333a174.08 174.08 0 0 0-121.173333 47.786667L50.56512 503.466667a160.426667 160.426667 0 0 0 0 233.813333l88.746667 85.333333a177.493333 177.493333 0 0 0 242.346666 0l136.533334-131.413333a25.6 25.6 0 1 0-35.84-37.546667L344.111787 785.066667a122.88 122.88 0 0 1-168.96 0l-88.746667-85.333334a107.52 107.52 0 0 1 0-158.72l302.08-290.133333a122.88 122.88 0 0 1 168.96 0l88.746667 85.333333a25.6 25.6 0 1 0 37.546666-37.546666l-88.746666-85.333334a174.08 174.08 0 0 0-121.173334-46.08zM774.191787-97.27999999999997a174.08 174.08 0 0 0-121.173334 47.786667L514.778453 81.91999999999996a25.6 25.6 0 1 0 35.84 37.546667l138.24-131.413334a122.88 122.88 0 0 1 168.96 0l88.746667 85.333334a107.52 107.52 0 0 1 0 158.72L644.48512 520.5333330000001a122.88 122.88 0 0 1-168.96 0l-88.746667-85.333333a25.6 25.6 0 1 0-35.84 37.546667l88.746667 85.333333a177.493333 177.493333 0 0 0 242.346667 0l302.08-290.133333a160.426667 160.426667 0 0 0 0-233.813334l-88.746667-85.333333a174.08 174.08 0 0 0-121.173333-46.08z"  horiz-adv-x="1034" />

    
    <glyph glyph-name="weixin" unicode="&#59018;" d="M512 894C230.6 894 2 665.4 2 384s228.6-510 510-510 510 228.6 510 510S793.3 894 512 894z m-93.5-644.3c-24.6 0-49.3 4.3-71.4 10.2-1.7 0-4.3 1.7-4.3 1.7l-55.3-32.3c-14.4-8.5-24.7-1.7-20.4 14.4 0 0 14.4 59.5 11.9 59.5-52.7 34.9-77.4 79.9-77.4 141.1 4.3 102.8 94.4 184.5 216.8 184.5 112.2 0 204-69.7 220.2-161.5h-10.2c-112.2 0-204-77.4-204-173.4 0-16.1 1.7-30.6 6-45h-11.9v0.8z m328.1-79.9l16.1-32.3c8.5-14.5 1.7-20.4-11.9-11.9 0 0-40.8 24.7-42.5 22.1-18.7-6-59.5-11.9-79.9-11.9-103.7 0-189.6 71.4-189.6 159s85.9 159 189.6 159S818 382.3 818 294.7c0-51.8-26.3-94.3-71.4-124.9zM353 532.7c-8.5 5.1-19.5 5.1-28.9 0-8.5-5.1-14.4-14.4-14.4-24.6s5.1-19.6 14.4-24.7c8.5-5.1 19.6-5.1 28.9 0 8.5 5.1 14.5 14.5 14.5 24.7s-6 19.6-14.5 24.6zM510.3 480c16.2 0 28.9 12.8 28.9 28.9 0 10.2-5.1 19.5-14.4 24.6-8.5 5.1-19.6 5.1-28.9 0-9.3-5.1-14.4-14.4-14.4-24.6-0.1-16.1 12.6-28.9 28.8-28.9z m187-100.3c-13.6 0-24.6-11-24.6-24.6s11-24.6 24.6-24.6 24.7 11 24.7 24.6-11.1 24.6-24.7 24.6z m-134.3 0c-13.6 0-24.6-11-24.6-24.6s11-24.6 24.6-24.6 24.6 11 24.6 24.6-11 24.6-24.6 24.6z"  horiz-adv-x="1024" />

    
    <glyph glyph-name="zuocebianlan" unicode="&#58950;" d="M798 623.2c-19.8 18.9-46.7 29.5-74.7 29.5H300.7c-28 0-54.9-10.6-74.7-29.5-19.8-18.9-30.9-44.5-30.9-71.2v-335.8c0-26.7 11.1-52.3 30.9-71.2 19.8-18.9 46.7-29.5 74.7-29.5h422.6c28 0 54.9 10.6 74.7 29.5 19.8 18.9 30.9 44.5 30.9 71.2V551.9c0 26.7-11.1 52.4-30.9 71.3zM406.4 182.5H300.7c-9.3 0-18.3 3.5-24.9 9.8-6.6 6.3-10.3 14.8-10.3 23.7V551.9c0 8.9 3.7 17.4 10.3 23.7 6.6 6.3 15.6 9.8 24.9 9.8h105.6v-402.9z m352.1 33.6c0-8.9-3.7-17.4-10.3-23.7-6.6-6.3-15.6-9.8-24.9-9.8H476.8v403h246.5c9.3 0 18.3-3.5 24.9-9.8 6.6-6.3 10.3-14.8 10.3-23.7v-336z"  horiz-adv-x="1024" />

    
    <glyph glyph-name="youcebianlan" unicode="&#58951;" d="M195.1 551.9v-335.8c0-26.7 11.1-52.3 30.9-71.2 19.8-18.9 46.7-29.5 74.7-29.5h422.6c28 0 54.9 10.6 74.7 29.5 19.8 18.9 30.9 44.5 30.9 71.2V551.9c0 26.7-11.1 52.3-30.9 71.2-19.8 18.9-46.7 29.5-74.7 29.5H300.7c-28 0-54.9-10.6-74.7-29.5-19.8-18.8-30.9-44.5-30.9-71.2z m422.5 33.6h105.6c9.3 0 18.3-3.5 24.9-9.8 6.6-6.3 10.3-14.8 10.3-23.7v-335.8c0-8.9-3.7-17.4-10.3-23.7-6.6-6.3-15.6-9.8-24.9-9.8H617.6V585.5z m-352.1-33.6c0 8.9 3.7 17.4 10.3 23.7 6.6 6.3 15.6 9.8 24.9 9.8h246.5v-403H300.7c-9.3 0-18.3 3.5-24.9 9.8-6.6 6.3-10.3 14.8-10.3 23.7v336z"  horiz-adv-x="1024" />

    
    <glyph glyph-name="renwuguanli" unicode="&#58890;" d="M873.629538 894.897231h-727.04A145.408 145.408 0 0 1 1.024 749.489231v-727.118769c0-80.344615 65.063385-145.486769 145.408-145.48677h727.118769c80.344615 0 145.486769 65.142154 145.486769 145.48677v727.04c0 80.344615-65.142154 145.486769-145.486769 145.486769h0.078769z m72.861539-872.763077a72.467692 72.467692 0 0 0-72.310154-72.625231H146.747077a72.467692 72.467692 0 0 0-51.593846 21.267692 72.152615 72.152615 0 0 0-21.425231 51.357539V749.410462c0 40.251077 32.689231 72.861538 72.940308 72.861538h727.04c40.172308 0 72.782769-32.610462 72.782769-72.782769v-727.355077z m-118.075077 545.634461H537.521231a36.312615 36.312615 0 1 1 0-72.704h290.894769a36.312615 36.312615 0 1 1 0 72.704z m0-291.052307H537.521231a36.312615 36.312615 0 1 1 0-72.625231h290.894769a36.312615 36.312615 0 1 1 0 72.625231zM319.330462 367.616a127.291077 127.291077 0 1 1 0-254.503385 127.291077 127.291077 0 0 1 0 254.424616v0.078769z m38.596923-165.888a54.587077 54.587077 0 1 0-77.193847 77.193846 54.587077 54.587077 0 0 0 77.193847-77.193846z m44.819692 427.953231l-119.729231-119.729231-47.104 46.946462a36.312615 36.312615 0 1 1-51.357538-51.357539l72.704-72.704c14.178462-14.178462 37.179077-14.178462 51.357538 0l145.486769 145.408a36.312615 36.312615 0 0 1-51.357538 51.436308z"  horiz-adv-x="1024" />

    
    <glyph glyph-name="shezhi" unicode="&#58908;" d="M1011.712 479.36l-97.92 58.88 19.84 119.04c2.56 16-2.56 32.64-14.08 44.8l-76.8 76.8c-11.52 11.52-28.16 17.28-44.8 14.08L684.672 774.4l-35.84 89.6c-7.68 19.2-26.88 32-47.36 32h-153.6c-21.12 0-39.68-12.8-47.36-32l-35.84-89.6-112.64 18.56c-16 2.56-32.64-2.56-44.8-14.08l-76.8-76.8c-11.52-11.52-17.28-28.16-14.08-44.8l17.92-113.28-89.6-35.84c-19.2-7.68-32-26.88-32-47.36v-128c0-17.92 9.6-34.56 24.96-44.16l97.92-58.88-19.84-119.04c-2.56-16.64 2.56-32.64 14.08-44.8l76.8-76.8c9.6-9.6 23.04-14.72 36.48-14.72 3.2 0 6.4 0.64 10.24 1.28l92.8 18.56 58.24-97.28c8.96-15.36 25.6-24.96 44.16-24.96h153.6c21.12 0 39.68 12.8 47.36 32l35.84 89.6 112.64-18.56c2.56-0.64 5.76-0.64 8.32-0.64 13.44 0 26.24 5.12 36.48 14.72l76.8 76.8c11.52 11.52 17.28 28.16 14.08 44.8l-19.84 119.04 97.92 58.88c15.36 8.96 24.96 26.24 24.96 44.16v102.4c0 17.92-9.6 34.56-24.96 44.16z m-77.44-117.76l-103.04-62.08-0.64-0.64c-1.92-1.28-3.2-2.56-5.12-3.84-1.28-0.64-1.92-1.28-3.2-2.56s-1.92-2.56-3.2-3.2l-3.84-3.84c-0.64-0.64-1.28-1.92-1.92-3.2-1.28-1.92-2.56-3.2-3.2-5.12-0.64-1.28-1.28-2.56-1.28-4.48-0.64-1.92-1.28-3.2-1.92-5.12-0.64-1.28-0.64-3.2-0.64-4.48 0-1.92-0.64-3.84-0.64-5.76v-3.84c0-1.92 0-4.48 0.64-6.4v-0.64l21.12-127.36-39.68-39.68-127.36 21.12h-3.2c-1.92 0-4.48 0.64-6.4 0.64-1.28 0-2.56-0.64-4.48-0.64-1.92 0-3.84-0.64-5.76-0.64-1.28-0.64-3.2-0.64-4.48-1.28-1.92-0.64-3.2-1.28-5.12-1.92l-3.84-1.92c-1.28-0.64-3.2-1.92-4.48-2.56-1.28-0.64-1.92-1.92-3.2-2.56l-3.84-3.84c-1.28-1.28-1.92-2.56-3.2-3.84-1.28-1.28-1.92-2.56-3.2-3.84-1.28-1.28-1.92-3.2-2.56-5.12l-1.92-3.84-38.4-96h-90.24l-62.08 103.04c0 0.64-0.64 0.64-0.64 1.28s-0.64 0.64-0.64 1.28c-0.64 1.28-1.92 1.92-2.56 3.2-0.64 1.28-1.92 2.56-2.56 3.2l-0.64 0.64s-0.64 0.64-1.28 0.64c-0.64 0.64-1.28 1.28-1.92 1.28-1.28 1.28-2.56 2.56-3.84 3.2l-3.84 1.92c-1.92 0.64-3.2 1.92-5.12 2.56-1.28 0.64-2.56 0.64-3.84 1.28l-5.76 1.92c-1.28 0-2.56 0.64-3.84 0.64-1.92 0-3.84 0.64-5.76 0.64h-3.84c-1.92 0-4.48 0-6.4-0.64h-1.28l-101.12-20.48-39.04 39.04 21.12 127.36v0.64c0.64 1.92 0.64 4.48 0.64 6.4V256c0 1.92-0.64 3.2-0.64 5.12 0 1.92-0.64 3.2-0.64 5.12-0.64 1.28-0.64 2.56-1.28 3.84-0.64 1.92-1.28 3.84-1.92 5.12-0.64 1.28-1.92 2.56-2.56 4.48-0.64 1.28-1.28 2.56-2.56 4.48-0.64 1.28-1.92 2.56-3.2 3.2l-3.84 3.84c-0.64 0.64-1.92 1.28-3.2 2.56-1.92 1.28-3.2 2.56-5.12 3.84l-0.64 0.64-103.04 62.08V424.96l95.36 37.76h0.64c1.28 0.64 1.92 1.28 3.2 1.28 1.92 0.64 3.84 1.92 5.76 3.2 1.28 0.64 2.56 1.92 3.84 3.2 1.28 1.28 2.56 1.92 3.84 3.2 1.28 1.28 2.56 2.56 3.2 3.84 1.28 1.28 1.92 2.56 3.2 3.84 1.28 1.28 1.92 3.2 2.56 4.48 0.64 1.28 1.92 2.56 2.56 4.48 0.64 1.28 1.28 3.2 1.28 4.48 0.64 1.28 1.28 3.2 1.28 4.48 0.64 1.92 0.64 3.84 0.64 5.12 0 1.28 0.64 3.2 0.64 4.48 0 2.56 0 4.48-0.64 7.04v3.84l-21.12 126.72 39.68 39.68 126.72-21.12h3.84c1.92 0 4.48-0.64 6.4-0.64 1.92 0 3.84 0.64 5.76 0.64 1.28 0 2.56 0 3.84 0.64l5.76 1.92c1.28 0.64 2.56 0.64 3.2 1.28 1.92 0.64 3.2 1.92 5.12 2.56 1.28 0.64 2.56 1.28 3.2 1.92 1.28 1.28 2.56 2.56 4.48 3.2 1.28 1.28 2.56 1.92 3.2 3.2 1.28 1.28 2.56 3.2 3.84 4.48 0.64 1.28 1.92 1.92 2.56 3.2 1.28 1.92 1.92 3.84 3.2 5.76 0.64 1.28 1.28 1.92 1.28 2.56v0.64l38.4 95.36h84.48l38.4-96s0-0.64 0.64-0.64c1.92-3.84 3.84-7.68 7.04-11.52l1.92-1.92c3.2-3.2 6.4-6.4 10.24-8.96 0.64-0.64 1.28-0.64 1.28-0.64 3.2-1.92 7.04-3.84 10.88-5.12 0.64 0 1.28-0.64 2.56-0.64 4.48-1.28 8.32-1.92 13.44-1.92h0.64c1.92 0 3.84 0.64 5.76 0.64H660.992l126.72 21.12 39.68-39.68-21.12-127.36v-0.64c-0.64-1.92-0.64-4.48-0.64-6.4v-3.84c0-1.92 0.64-3.84 0.64-5.76 0-1.28 0-3.2 0.64-4.48 0.64-1.92 1.28-3.2 1.92-5.12 0.64-1.28 0.64-3.2 1.28-4.48 0.64-1.92 1.92-3.84 3.2-5.12 0.64-1.28 1.28-1.92 1.92-3.2l3.84-3.84c1.28-1.28 1.92-2.56 3.2-3.2 1.28-0.64 1.92-1.92 3.2-2.56 1.92-1.28 3.2-2.56 5.12-3.84l0.64-0.64 103.04-62.08v-42.24z m-409.6 232.96c-112.64 0-204.8-92.16-204.8-204.8s92.16-204.8 204.8-204.8 204.8 92.16 204.8 204.8-92.16 204.8-204.8 204.8z m0-307.2c-56.32 0-102.4 46.08-102.4 102.4s46.08 102.4 102.4 102.4 102.4-46.08 102.4-102.4-46.08-102.4-102.4-102.4z"  horiz-adv-x="1036" />

    
    <glyph glyph-name="formula" unicode="&#58915;" d="M552.0896 330.09664L606.03392 384l-53.94432 53.90336L290.6112 699.1667199999999l551.0144 0.29696v76.25728l-659.17952-0.3584v-76.25728L498.14528 384 182.3744 68.49536v-75.85792l659.17952-0.3584v76.25728l-551.0144 0.29696 261.55008 261.26336"  horiz-adv-x="1024" />

    
    <glyph glyph-name="strikethrough" unicode="&#60144;" d="M952 422H569.9c-10 2-20.5 4-31.6 6-15.9 2.9-22.2 4.1-30.8 5.8-51.3 10-82.2 20-106.8 34.2-35.1 20.5-52.2 48.3-52.2 85.1 0 37 15.2 67.7 44 89 28.4 21 68.8 32.1 116.8 32.1 54.8 0 97.1-14.4 125.8-42.8 14.6-14.4 25.3-32.1 31.8-52.6 1.3-4.1 2.8-10 4.3-17.8 0.9-4.8 5.2-8.2 9.9-8.2h72.8c5.6 0 10.1 4.6 10.1 10.1v1c-0.7 6.8-1.3 12.1-2 16-7.3 43.5-28 81.7-59.7 110.3-44.4 40.5-109.7 61.8-188.7 61.8-72.3 0-137.4-18.1-183.3-50.9-25.6-18.4-45.4-41.2-58.6-67.7-13.5-27.1-20.3-58.4-20.3-92.9 0-29.5 5.7-54.5 17.3-76.5 8.3-15.7 19.6-29.5 34.1-42H72c-4.4 0-8-3.6-8-8v-60c0-4.4 3.6-8 8-8h433.2c2.1-0.4 3.9-0.8 5.9-1.2 30.9-6.2 49.5-10.4 66.6-15.2 23-6.5 40.6-13.3 55.2-21.5 35.8-20.2 53.3-49.2 53.3-89 0-35.3-15.5-66.8-43.6-88.8-30.5-23.9-75.6-36.4-130.5-36.4-43.7 0-80.7 8.5-110.2 25-29.1 16.3-49.1 39.8-59.7 69.5-0.8 2.2-1.7 5.2-2.7 9-1.2 4.4-5.3 7.5-9.7 7.5h-79.7c-5.6 0-10.1-4.6-10.1-10.1v-1c0.2-2.3 0.4-4.2 0.6-5.7 6.5-48.8 30.3-88.8 70.7-118.8 47.1-34.8 113.4-53.2 191.8-53.2 84.2 0 154.8 19.8 204.2 57.3 25 18.9 44.2 42.2 57.1 69 13 27.1 19.7 57.9 19.7 91.5 0 31.8-5.8 58.4-17.8 81.4-5.8 11.2-13.1 21.5-21.8 30.8H952c4.4 0 8 3.6 8 8v60c0 4.3-3.6 7.9-8 7.9z"  horiz-adv-x="1024" />

    


  </font>
</defs>
</svg>
