<svg width="100" height="24" viewBox="0 0 100 24" fill="none" xmlns="http://www.w3.org/2000/svg">
<path d="M98.861 4.37025C98.7498 4.24496 98.6243 4.13315 98.487 4.03711L96.9559 16.511C96.7975 18.2977 96.1197 19.8016 94.9951 20.8623C93.8706 21.9229 92.3157 22.5096 90.5256 22.5348L86.7338 22.6082C86.1512 22.6082 61.4291 22.8237 61.1796 22.8265H61.168C60.3321 22.8262 59.525 22.5211 58.8979 21.9684H8.65428C8.60533 21.9684 8.55502 21.9718 8.50607 21.9718C8.43332 21.9718 8.35989 21.9718 8.28714 21.965C7.26848 21.9074 6.25976 21.7334 5.28069 21.4463C6.63298 22.4369 8.38437 23.0053 10.5104 23.1412C10.5557 23.144 10.601 23.1453 10.6464 23.1453C10.6851 23.1453 10.7245 23.1453 10.764 23.1453H58.3309C58.3656 23.1909 58.3989 23.2364 58.4397 23.2813C58.6407 23.5075 58.8874 23.6884 59.1635 23.8123C59.4396 23.9362 59.7389 24.0001 60.0415 23.9999C60.0415 23.9999 88.2799 23.7817 88.8748 23.7817L92.6461 23.709C95.6267 23.6675 97.5542 21.8495 97.8133 18.8416L99.3824 6.05093C99.4196 5.74984 99.3923 5.44429 99.3024 5.15454C99.2125 4.86479 99.062 4.59746 98.861 4.37025Z" fill="#FF7B31"/>
<path d="M13.6426 10.8857C13.9349 7.51664 12.7338 5.75347 10.0392 5.59619C7.31149 5.80242 5.66571 7.55948 5.10186 10.8674C4.81948 14.1521 6.01857 15.8913 8.69914 16.0848C11.4858 15.9756 13.1336 14.2425 13.6426 10.8857Z" fill="#FF7B31"/>
<path d="M70.6409 16.2663H72.4039L72.9328 11.9585H71.1699L70.6409 16.2663Z" fill="#FF7B31"/>
<path d="M41.3888 9.19556C39.559 9.29301 38.478 10.2018 38.1457 11.9219H43.8534C43.9554 10.2013 43.1338 9.29255 41.3888 9.19556Z" fill="#FF7B31"/>
<path d="M67.0416 16.2663H68.7869L69.3158 11.9585H67.5705L67.0416 16.2663Z" fill="#FF7B31"/>
<path d="M8.50403 20.6801C8.54278 20.6801 8.58221 20.6801 8.62097 20.6767H59.4554C59.4894 20.7229 59.5234 20.7685 59.5642 20.8127C59.7651 21.0398 60.012 21.2217 60.2885 21.3463C60.565 21.4709 60.8648 21.5354 61.1681 21.5354C61.1681 21.5354 86.1383 21.3172 86.7318 21.3172L90.5031 21.2444C93.4837 21.2023 95.4112 19.3849 95.6703 16.3771L97.234 3.64827L97.2422 3.58572C97.2792 3.28436 97.2517 2.97856 97.1615 2.68862C97.0714 2.39868 96.9206 2.13122 96.7193 1.90395C96.5179 1.67669 96.2706 1.49483 95.9936 1.37042C95.7166 1.24601 95.4164 1.18189 95.1128 1.18232H90.5215V1.16057H84.1122C84.0354 1.05654 83.9585 0.953201 83.8803 0.849178C83.2882 0.0679887 82.6164 0 81.4096 0H81.2057L63.2703 0.127819C62.9019 0.127855 62.5398 0.222927 62.2189 0.403844C61.8981 0.584761 61.6293 0.845402 61.4386 1.16057H37.0572C36.8813 1.03516 36.6874 0.937272 36.482 0.870255C35.4534 0.536569 34.3819 0.353371 33.3009 0.326346C33.2002 0.326346 33.101 0.320907 33.0031 0.320907C31.7371 0.320907 30.6439 0.60238 29.7396 1.15785H29.004C28.8283 1.03246 28.6346 0.934567 28.4295 0.867535C27.4008 0.53385 26.3293 0.350651 25.2483 0.323626C25.1483 0.323626 25.0491 0.318187 24.9512 0.318187C23.6852 0.318187 22.592 0.59966 21.6877 1.15513C21.6877 1.15513 10.9523 1.05994 10.5614 1.03547C10.5165 1.03547 10.4723 1.03139 10.4254 1.03139H10.3254C7.4808 1.16737 5.15015 2.06074 3.39876 3.69586C1.67932 5.30992 0.556152 7.60589 0.0645935 10.528C0.0524478 10.5971 0.0440503 10.6668 0.0394377 10.7368C-0.174047 13.7861 0.480004 16.2031 1.98187 17.9205C2.33843 18.327 2.73985 18.692 3.17847 19.0083C4.52533 19.9812 6.26448 20.5407 8.37077 20.6754C8.41428 20.6785 8.4587 20.6801 8.50403 20.6801ZM46.4098 13.0124C46.3812 13.2431 46.3545 13.4613 46.3295 13.6671H38.0023C37.8813 15.4348 38.7474 16.3739 40.6008 16.4845C41.9973 16.4601 42.9299 15.9207 43.3985 14.8664L46.2466 15.2295C45.1923 17.3983 43.2433 18.4768 40.3996 18.465C36.7327 18.3195 35.0343 16.5079 35.3045 13.03C35.891 9.33416 37.956 7.41938 41.4996 7.28567C45.2023 7.3106 46.839 9.21949 46.4098 13.0124ZM56.1784 10.1405C55.8384 9.84952 55.3897 9.70402 54.8322 9.70402C53.2979 9.76521 52.3928 10.771 52.1167 12.7214L51.4368 18.2284H48.7105L50.0227 7.53994H52.7674L52.5083 9.50278H52.5267C53.2388 8.04873 54.2627 7.30946 55.5984 7.28499C56.3118 7.29722 56.9151 7.46697 57.4083 7.79422L56.1784 10.1405ZM60.2013 17.7933H58.3309L60.0163 4.05077H61.8887L60.2013 17.7933ZM80.179 19.2659H77.6893L79.2354 6.66833H81.7258L80.179 19.2659ZM95.1128 3.32397L95.0733 3.64759L93.5375 16.1575C93.3838 18.0961 92.3604 19.0776 90.4671 19.1021L86.7345 19.1728C86.7114 18.4698 86.6498 17.6397 86.5496 16.6824C87.6583 16.7309 88.6618 16.749 89.5601 16.7368C90.5482 16.7857 91.0615 16.3551 91.1001 15.445L92.3007 5.6655H84.754L85.0416 3.32057H95.1128V3.32397ZM82.1725 2.14232C82.2563 2.25246 82.3388 2.36261 82.42 2.47275C83.0092 3.26912 83.5438 4.05575 84.0238 4.83263L81.6224 6.17745C81.1615 5.2936 80.589 4.3302 79.905 3.28725L81.5062 2.47887L82.1725 2.14232ZM68.7508 2.19671L71.0937 2.55297L71.142 2.56045C70.7889 3.26346 70.449 3.91184 70.1222 4.50561H76.4839L76.2228 6.6323H70.9693C71.6442 7.25054 72.344 7.91705 73.0688 8.63184L71.4371 9.95898H75.2179L74.0669 19.302H72.0313L72.1584 18.2658H66.7962L66.669 19.302H64.6328L65.7804 9.95898H71.1807C70.5734 9.27909 69.8781 8.52759 69.0949 7.70448L70.4805 6.6323H68.7719C68.0606 7.60383 67.2854 8.52689 66.4515 9.39535C65.9651 8.91082 65.4323 8.41383 64.853 7.90436C66.5065 6.31796 67.755 4.54006 68.5985 2.57065C68.6502 2.44691 68.701 2.32227 68.7508 2.19671ZM63.2703 2.26946H65.4337L65.3935 2.59377L63.3315 19.3931H61.1681L63.1037 3.62584L63.2703 2.26946ZM33.2349 2.46935C33.9819 2.48733 34.724 2.59646 35.4445 2.79433C35.5696 2.82901 35.6941 2.86232 35.8171 2.90584L34.7973 4.86867C34.4231 4.68529 34.0112 4.59215 33.5946 4.59671C32.5929 4.56045 32.0435 5.08759 31.9465 6.17813L31.7813 7.52363H34.1079L33.8536 9.59592H31.5236L30.4637 18.2305H27.736L28.7959 9.59592H26.9976L27.2519 7.52363H29.0516L29.2147 6.19649C29.3326 4.88204 29.7405 3.91524 30.4385 3.29609C31.1071 2.70414 32.0392 2.42856 33.2349 2.46935ZM25.1823 2.46935C25.9294 2.48733 26.6714 2.59646 27.392 2.79433C27.5171 2.82901 27.6415 2.86232 27.7645 2.90584L26.7447 4.86867C26.3706 4.68529 25.9586 4.59215 25.542 4.59671C24.5403 4.56045 23.9909 5.08759 23.8939 6.17813L23.7247 7.52295H26.0512L25.7969 9.59524H23.4711L22.4111 18.2298H19.6848L20.7447 9.59524H18.945L19.1993 7.52295H20.999L21.1622 6.19581C21.2614 5.08623 21.5681 4.22504 22.082 3.61224C22.7579 2.80272 23.7913 2.42176 25.1823 2.46935ZM2.20216 13.0144C2.12918 12.3071 2.11917 11.5947 2.17224 10.8857C3.00669 5.96601 5.75796 3.39694 10.4261 3.17847C11.1086 3.21622 11.7852 3.32583 12.4446 3.5055C15.5155 4.36941 16.9394 6.82334 16.7164 10.8673C15.8774 15.7271 13.1399 18.2842 8.50403 18.5385C4.67355 18.2942 2.57179 16.4528 2.19876 13.0144H2.20216Z" fill="#FF7B31"/>
<path d="M12.4446 3.50549C11.7852 3.32583 11.1085 3.21621 10.4261 3.17847C5.75796 3.39694 3.00668 5.966 2.17224 10.8857C2.11804 11.5946 2.12691 12.307 2.19875 13.0144C2.57224 16.4528 4.67399 18.2942 8.50402 18.5385C13.1404 18.2842 15.8778 15.7271 16.7164 10.8673C16.9403 6.82198 15.5164 4.36804 12.4446 3.50549ZM13.6426 10.8857C13.1336 14.2429 11.4858 15.976 8.69915 16.0848C6.0204 15.8908 4.82221 14.1516 5.10459 10.8673C5.66844 7.55852 7.31422 5.80147 10.0419 5.59614C12.7347 5.75388 13.935 7.51705 13.6426 10.8857Z" fill="white"/>
<path d="M25.5393 4.59594C25.9559 4.59137 26.3678 4.68451 26.742 4.86789L27.7618 2.90506C27.6387 2.86494 27.5143 2.82823 27.3892 2.79356C26.6687 2.59568 25.9266 2.48655 25.1796 2.46857C23.7881 2.42098 22.7547 2.80126 22.0793 3.60942C21.5662 4.22404 21.2596 5.08523 21.1594 6.19299L20.9963 7.52013H19.1993L18.945 9.59242H20.7447L19.6848 18.227H22.4111L23.471 9.59242H25.7983L26.0526 7.52013H23.7246L23.8899 6.17463C23.9882 5.08591 24.538 4.55967 25.5393 4.59594Z" fill="white"/>
<path d="M33.5919 4.596C34.0085 4.59143 34.4204 4.68457 34.7946 4.86795L35.8144 2.90512C35.6913 2.865 35.5669 2.82829 35.4418 2.79362C34.7213 2.59574 33.9792 2.48661 33.2322 2.46863C32.0356 2.42738 31.1041 2.70274 30.4379 3.29469C29.7389 3.91475 29.331 4.88155 29.2141 6.19509L29.0509 7.52223H27.2519L26.9976 9.59452H28.7973L27.736 18.2298H30.4623L31.5223 9.5952H33.8495L34.1038 7.52291H31.7786L31.9438 6.17741C32.0394 5.08687 32.5888 4.55973 33.5919 4.596Z" fill="white"/>
<path d="M41.4962 7.28638C37.9531 7.42235 35.888 9.33714 35.3011 13.0307C35.0291 16.509 36.7275 18.3207 40.3961 18.4658C43.2421 18.478 45.1912 17.3995 46.2432 15.2302L43.3972 14.8664C42.9289 15.9207 41.9964 16.4601 40.5994 16.4846C38.7492 16.3731 37.8835 15.4335 38.0023 13.6658H46.3295C46.3549 13.46 46.3816 13.2417 46.4097 13.011C46.8394 9.21952 45.2016 7.31131 41.4962 7.28638ZM43.8534 11.9218H38.1457C38.478 10.1995 39.559 9.29068 41.3888 9.1955C43.1343 9.29295 43.9558 10.2017 43.8534 11.9218Z" fill="white"/>
<path d="M52.5301 9.50403H52.5117L52.7708 7.5412H50.0261L48.7139 18.2297H51.4402L52.1201 12.7226C52.3962 10.7736 53.3013 9.76782 54.8356 9.70527C55.3931 9.70527 55.8418 9.85077 56.1818 10.1418L57.4151 7.79683C56.9215 7.46958 56.3182 7.29984 55.6052 7.2876C54.2663 7.31117 53.2413 8.04998 52.5301 9.50403Z" fill="white"/>
<path d="M65.4337 2.26953H63.2703L63.1037 3.62591L61.168 19.3932H63.3314L65.3935 2.59384L65.4337 2.26953Z" fill="white"/>
<path d="M60.0163 4.05078L58.3288 17.7933H60.2012L61.8887 4.05078H60.0163Z" fill="white"/>
<path d="M71.142 2.56052L71.0937 2.55304L68.7508 2.19678C68.701 2.32233 68.6495 2.44698 68.5965 2.57072C67.7534 4.54148 66.5049 6.31938 64.851 7.90443C65.4303 8.41389 65.9631 8.91088 66.4494 9.39542C67.2834 8.52695 68.0586 7.60389 68.7699 6.63236H70.4784L69.0928 7.70454C69.876 8.52947 70.5713 9.28097 71.1787 9.95904H65.7804L64.6328 19.302H66.669L66.7962 18.2659H72.1584L72.0313 19.302H74.0669L75.2145 9.95904H71.4337L73.0654 8.6319C72.3402 7.91666 71.6403 7.25015 70.9659 6.63236H76.2194L76.4839 4.50567H70.1215C70.4492 3.91236 70.7894 3.26397 71.142 2.56052ZM68.7869 16.2664H67.0416L67.5705 11.9586H69.3158L68.7869 16.2664ZM72.9342 11.9586L72.4045 16.2664H70.6416L71.1705 11.9586H72.9342Z" fill="white"/>
<path d="M82.1725 2.14233L81.5062 2.47888L79.905 3.28726C80.589 4.32976 81.1615 5.29316 81.6224 6.17746L84.0238 4.83265C83.5443 4.05576 83.0096 3.26913 82.42 2.47276C82.3384 2.36262 82.2559 2.25248 82.1725 2.14233Z" fill="white"/>
<path d="M86.0281 3.32397H85.045L84.7574 5.6689H92.3041L91.1014 15.4484C91.0624 16.3576 90.5491 16.7882 89.5615 16.7402C88.6631 16.7524 87.6596 16.7343 86.5509 16.6858C86.6516 17.6431 86.7132 18.4732 86.7359 19.1762L90.4712 19.1035C92.3644 19.079 93.3879 18.0975 93.5415 16.1589L95.0774 3.64896L95.1168 3.32533L86.0281 3.32397Z" fill="white"/>
<path d="M77.6886 19.2661H80.179L81.7258 6.66846H79.2354L77.6886 19.2661Z" fill="white"/>
</svg>
